<svg width="84" height="84" viewBox="0 0 84 84" fill="none" xmlns="http://www.w3.org/2000/svg">
<path d="M75.6008 34.8028C75.1298 34.8181 74.6483 35.0934 74.4621 35.5566L73.3925 38.2316L70.7356 28.489C70.6044 28.0093 70.1908 27.6603 69.6964 27.6111C69.1928 27.5572 68.7276 27.8243 68.5051 28.2683L65.2379 34.8028H63.4011C65.0783 31.4895 65.9794 27.8095 65.9794 24.0065C65.9794 10.7775 55.2171 0.0146484 41.9876 0.0146484C28.758 0.0146484 17.9958 10.7775 17.9958 24.0065C17.9958 27.8108 18.8977 31.4919 20.5758 34.8059L20.4195 34.8028C19.9368 34.8181 19.467 35.0934 19.2808 35.5566L18.2112 38.2316L15.5543 28.489C15.4231 28.0093 15.0095 27.6603 14.5151 27.6111C14.0067 27.5572 13.5463 27.8243 13.3238 28.2683L10.0566 34.8028H6V37.2019H10.7984C11.2529 37.2019 11.6676 36.9454 11.8714 36.5389L14.0656 32.1494L16.8384 42.3161C16.9743 42.8133 17.4124 43.1684 17.928 43.1982C17.9502 43.1994 17.9737 43.2 17.9959 43.2C18.4844 43.2 18.9272 42.9031 19.11 42.4462L21.2011 37.2186L22.0058 37.2348C22.6215 38.1597 23.2834 39.0582 24.0313 39.8989C24.0642 40.0277 24.1192 40.1525 24.1954 40.2667C28.1327 46.1722 28.3623 47.3958 29.0453 51.0286C29.1719 51.6957 29.3112 52.4367 29.4881 53.2895C29.7934 54.7774 30.6645 55.9889 31.8377 56.7467C31.4325 57.329 31.1914 58.0333 31.1914 58.7949C31.1914 60.0729 31.8657 61.1903 32.8725 61.8288C32.5748 62.3524 32.391 62.949 32.391 63.5932C32.391 64.8712 33.0653 65.9887 34.0721 66.6271C33.7744 67.1508 33.5906 67.7474 33.5906 68.3916C33.5906 70.376 35.2049 71.9904 37.1893 71.9904H46.7861C48.7705 71.9904 50.3848 70.376 50.3848 68.3916C50.3848 67.7474 50.201 67.1509 49.9033 66.6271C50.9101 65.9885 51.5844 64.8712 51.5844 63.5932C51.5844 62.949 51.4006 62.3525 51.1029 61.8288C52.1097 61.1901 52.784 60.0729 52.784 58.7949C52.784 58.0333 52.543 57.3291 52.1379 56.7469C53.3111 55.9893 54.182 54.7788 54.4873 53.2925C54.6642 52.4367 54.8035 51.6958 54.9301 51.0286C55.6131 47.3958 55.8427 46.1722 59.78 40.2667C59.8562 40.1525 59.9112 40.0277 59.9441 39.8989C60.7009 39.0483 61.3701 38.139 61.9915 37.2022H65.9795C66.434 37.2022 66.8488 36.9457 67.0525 36.5392L69.2467 32.1497L72.0196 42.3164C72.1554 42.8136 72.5936 43.1687 73.1091 43.1985C73.1313 43.1997 73.1549 43.2003 73.177 43.2003C73.6656 43.2003 74.1084 42.9034 74.2912 42.4466L76.3822 37.2189L77.9508 37.2505L78 34.8513L75.6008 34.8028ZM46.7861 69.5909H37.1893C36.5275 69.5909 35.9898 69.0526 35.9898 68.3913C35.9898 67.73 36.5275 67.1917 37.1893 67.1917H46.7861C47.4479 67.1917 47.9857 67.73 47.9857 68.3913C47.9857 69.0526 47.4479 69.5909 46.7861 69.5909ZM47.9857 64.7925H46.7861H37.1893H35.9898C35.3279 64.7925 34.7902 64.2542 34.7902 63.5929C34.7902 62.9316 35.3279 62.3933 35.9898 62.3933H47.9857C48.6475 62.3933 49.1852 62.9316 49.1852 63.5929C49.1852 64.2542 48.6475 64.7925 47.9857 64.7925ZM49.1852 59.9942H47.9857H35.9898H34.7902C34.1283 59.9942 33.5906 59.4558 33.5906 58.7946C33.5906 58.1333 34.1283 57.595 34.7902 57.595H49.1852C49.8471 57.595 50.3848 58.1333 50.3848 58.7946C50.3848 59.4558 49.8471 59.9942 49.1852 59.9942ZM57.717 38.7776C57.5213 38.9856 57.4101 39.252 57.3925 39.5261C53.556 45.3502 53.2595 46.9305 52.572 50.5849C52.449 51.2385 52.312 51.9654 52.1374 52.8077C51.8492 54.2135 50.6789 55.1958 49.2931 55.1958H49.1852H47.0158L50.1911 37.2019H51.5844C53.5688 37.2019 55.1832 35.5876 55.1832 33.6032V28.8048H58.782C59.445 28.8048 59.9816 28.2677 59.9816 27.6052V21.6073C59.9816 19.6228 58.3672 18.0085 56.3828 18.0085V14.4097C56.3828 12.4253 54.7684 10.811 52.784 10.811H51.5844C51.5844 8.82654 49.9701 7.21219 47.9857 7.21219H44.3869C43.7238 7.21219 43.1873 7.74931 43.1873 8.41178V36.0023C43.1873 36.6648 43.7238 37.2019 44.3869 37.2019H47.7559L44.5806 55.1958H39.3949L36.2196 37.2019H39.5885C40.2516 37.2019 40.7881 36.6648 40.7881 36.0023V8.41178C40.7881 7.74931 40.2516 7.21219 39.5885 7.21219H35.9898C34.0053 7.21219 32.391 8.82654 32.391 10.811H31.1914C29.207 10.811 27.5926 12.4253 27.5926 14.4097V18.0085C25.6082 18.0085 23.9939 19.6228 23.9939 21.6073V30.0044C23.9939 30.6669 24.5304 31.204 25.1934 31.204H28.7922V33.6032C28.7922 35.5876 30.4066 37.2019 32.391 37.2019H33.7843L36.9596 55.1958H34.7902H34.6824C33.2965 55.1958 32.1262 54.2135 31.838 52.8049C31.6634 51.9654 31.5264 51.2386 31.4034 50.5849C30.7158 46.9305 30.4193 45.3502 26.5829 39.5261C26.5653 39.252 26.4541 38.9856 26.2584 38.7776C22.4768 34.7723 20.3951 29.527 20.3951 24.0065C20.3951 12.1002 30.0821 2.41383 41.9877 2.41383C53.8933 2.41383 63.5803 12.1002 63.5803 24.0065C63.5803 29.527 61.4986 34.7723 57.717 38.7776ZM50.3848 20.4077V16.8089C50.3848 16.1464 49.8483 15.6093 49.1852 15.6093H45.5865V9.61137H47.9857C48.6475 9.61137 49.1852 10.1497 49.1852 10.811V12.0105C49.1852 12.673 49.7218 13.2101 50.3848 13.2101H52.784C53.4459 13.2101 53.9836 13.7485 53.9836 14.4097V19.2081C53.9836 19.8706 54.5201 20.4077 55.1832 20.4077H56.3828C57.0447 20.4077 57.5824 20.946 57.5824 21.6073V26.4056H53.9836H49.1852C48.5222 26.4056 47.9857 26.9427 47.9857 27.6052V30.0044H50.3848V28.8048H52.784V33.6032C52.784 34.2644 52.2463 34.8028 51.5844 34.8028H45.5865V18.0085H47.9857V20.4077H50.3848ZM29.9918 24.0065C29.3287 24.0065 28.7922 24.5436 28.7922 25.206V28.8048H26.393V21.6073C26.393 20.946 26.9307 20.4077 27.5926 20.4077H28.7922C29.4553 20.4077 29.9918 19.8706 29.9918 19.2081V14.4097C29.9918 13.7485 30.5295 13.2101 31.1914 13.2101H32.391V15.6093H34.7902V12.0105V10.811C34.7902 10.1497 35.3279 9.61137 35.9898 9.61137H38.3889V34.8028H32.391C31.7291 34.8028 31.1914 34.2644 31.1914 33.6032V30.0044V26.4056H33.5906V24.0065H29.9918Z" fill="#35CC61"/>
</svg>
