<svg width="366" height="261" viewBox="0 0 366 261" fill="none" xmlns="http://www.w3.org/2000/svg">
<g clip-path="url(#clip0)">
<path d="M366 167.632C366.008 174.685 365.272 181.719 363.803 188.616C363.31 190.926 362.737 193.19 362.085 195.409C361.277 198.174 360.353 200.854 359.313 203.451C358.785 204.773 358.226 206.073 357.638 207.349C357.658 214.545 356.377 221.685 353.856 228.421C349.397 240.271 341.277 249.939 331.116 255.586C324.784 259.131 317.655 260.995 310.405 261H69.4792C56.6019 261 44.6663 256.406 34.881 248.579C32.02 246.282 29.3616 243.741 26.9353 240.985C23.5601 237.142 20.6297 232.927 18.2003 228.421C12.5634 218.021 9.31609 205.778 9.31609 192.674C3.4275 180.708 0 166.363 0 150.926C0 131.47 5.45666 113.726 14.4216 100.288C16.2707 97.5101 18.3176 94.8702 20.5464 92.3888C22.6993 89.9874 25.0416 87.764 27.5505 85.7402C29.5176 84.1536 31.5944 82.7092 33.7654 81.4179C34.6634 80.8878 35.5646 80.3888 36.4813 79.9242C37.2851 79.5084 38.0992 79.1206 38.9237 78.7609C39.9119 78.3244 40.9125 77.9241 41.9255 77.5603C42.9385 77.1965 43.9381 76.8774 44.9242 76.6029C46.3816 76.1944 47.8598 75.8644 49.3523 75.6144C50.5953 75.3992 51.8382 75.2402 53.0812 75.1372C54.0694 75.0562 55.0658 75.0094 56.0706 74.9969C56.2539 74.9969 56.431 74.9969 56.6144 74.9969C57.7206 74.9969 58.8207 75.0499 59.9114 75.1341C60.0263 74.8659 60.1506 74.5977 60.2656 74.3296C60.7007 73.3691 61.1512 72.4148 61.6049 71.473C61.6059 71.4647 61.6059 71.4564 61.6049 71.4481C61.6826 71.2859 61.7603 71.1362 61.8411 70.9647C62.2078 70.1975 62.59 69.4366 62.9815 68.6819C63.1617 68.3327 63.3389 67.9865 63.5222 67.6404C63.5626 67.5593 63.603 67.4813 63.6496 67.4002C63.8361 67.0416 64.0256 66.6861 64.2183 66.3306C65.1774 64.5572 66.1749 62.8108 67.2107 61.0915C67.3008 60.9449 67.3848 60.7984 67.4749 60.6549C67.6365 60.3898 67.7856 60.1248 67.9658 59.8628C68.3947 59.1643 68.8359 58.4688 69.2803 57.7797C69.591 57.2932 69.9018 56.8067 70.2374 56.3264C71.0453 55.1102 71.874 53.9096 72.7233 52.7246C73.5727 51.5395 74.4552 50.3545 75.3709 49.1695C75.4952 49.0073 75.6195 48.8576 75.75 48.6861L77.0768 47.0115L77.2602 46.7838L77.7418 46.1944C78.4534 45.3244 79.1837 44.4637 79.917 43.6123C83.61 39.3407 87.5862 35.3243 91.8185 31.5905C91.9832 31.4377 92.151 31.2786 92.3157 31.1477C93.105 30.4585 93.9067 29.7786 94.7084 29.1113C99.0781 25.4753 103.689 22.1412 108.509 19.1321C108.838 18.92 109.174 18.7142 109.512 18.5084C113.77 15.8978 118.179 13.5443 122.716 11.4605C125.202 10.3129 127.714 9.25057 130.251 8.27344C131.936 7.63103 133.626 7.02604 135.338 6.45223C137.986 5.5749 140.666 4.77968 143.38 4.06658C151.34 1.99169 159.483 0.704872 167.693 0.224585C170.179 0.0748972 172.693 5.34083e-05 175.235 5.34083e-05C187.547 -0.0112896 199.794 1.78421 211.588 5.32957C211.696 5.53562 211.859 5.70796 212.058 5.82784C212.257 5.94771 212.484 6.01051 212.716 6.00941H213.764C214.217 6.15286 214.668 6.30255 215.122 6.45223C217.655 7.29631 220.152 8.22043 222.614 9.22458L223.235 9.4803C234.989 14.333 245.943 20.9421 255.726 29.0832C256.454 29.684 257.17 30.2942 257.877 30.9138C258.734 30.2755 259.607 29.6653 260.493 29.0832C263.866 26.845 267.508 25.0448 271.332 23.7256C279.162 21.0208 287.603 20.6375 295.645 22.6217C305.977 25.1632 315.33 31.4689 322.884 40.4346C325.999 44.1603 328.736 48.1886 331.054 52.4595C331.225 52.7713 331.396 53.0832 331.56 53.395C333.601 57.2614 335.34 61.2808 336.762 65.4169C336.815 65.5666 336.868 65.7287 336.914 65.8659C338.247 69.7951 339.316 73.8092 340.115 77.8815C340.152 78.0873 340.196 78.2963 340.233 78.5052C340.987 82.4775 341.497 86.4922 341.762 90.5271C341.762 90.6736 341.762 90.8202 341.787 90.9668C341.917 93.0582 341.984 95.1726 341.986 97.3098C341.986 99.2225 341.933 101.116 341.827 102.992C341.827 103.201 341.802 103.413 341.787 103.615C341.759 104.161 341.719 104.707 341.678 105.25C344.075 107.495 346.296 109.922 348.322 112.509C349.227 113.659 350.103 114.849 350.951 116.08C353.559 119.878 355.826 123.901 357.725 128.102C362.98 139.625 366 153.153 366 167.632Z" fill="#222137"/>
<path opacity="0.1" d="M333.373 248.95C333.373 253.581 319.104 257.806 295.655 260.999H75.6485C52.2029 257.806 37.9336 253.581 37.9336 248.95C37.9336 245.423 46.2118 242.129 60.5247 239.348L60.9286 239.27C64.9683 238.493 69.4834 237.757 74.418 237.068L74.794 237.015C78.7094 236.472 82.8744 235.96 87.289 235.478L87.7054 235.434C89.4083 235.247 91.1464 235.066 92.9197 234.891L93.6033 234.826C106.515 233.578 121.191 232.568 137.107 231.891H137.126C139.355 231.798 141.608 231.71 143.885 231.629C146.416 231.536 148.979 231.453 151.573 231.38C153.552 231.321 155.556 231.271 157.567 231.224H157.613C166.684 231.009 176.056 230.896 185.639 230.896C209.337 230.896 231.735 231.579 251.582 232.793H251.638C254.69 232.98 257.685 233.176 260.606 233.388L263.092 233.572C266.388 233.822 269.599 234.086 272.725 234.364C309.496 237.648 333.373 242.959 333.373 248.95Z" fill="#6C63FF"/>
<path opacity="0.03" d="M98.4797 32.8442V42.3026C98.4801 42.4708 98.4474 42.6374 98.3836 42.7929C98.3197 42.9484 98.2259 43.0897 98.1076 43.2087C97.9893 43.3278 97.8487 43.4223 97.6939 43.4867C97.5391 43.5512 97.3732 43.5843 97.2056 43.5843H79.9531C83.6461 39.3127 87.6223 35.2963 91.8546 31.5625H97.2087C97.376 31.5629 97.5416 31.5964 97.696 31.661C97.8505 31.7257 97.9907 31.8202 98.1087 31.9392C98.2267 32.0582 98.3202 32.1994 98.3839 32.3547C98.4475 32.51 98.4801 32.6763 98.4797 32.8442V32.8442Z" stroke="white" stroke-miterlimit="10"/>
<path d="M309.596 32.8255V174.911C309.596 175.903 309.203 176.855 308.504 177.557C307.805 178.259 306.856 178.653 305.867 178.653H53.0805C52.0915 178.653 51.143 178.259 50.4437 177.557C49.7444 176.855 49.3516 175.903 49.3516 174.911V75.6145C50.5945 75.3993 51.8375 75.2402 53.0805 75.1373C54.0687 75.0562 55.0651 75.0095 56.0698 74.997C56.2532 74.997 56.4303 74.997 56.6136 74.997C57.7199 74.997 58.8199 75.05 59.9106 75.1342C60.0256 74.866 60.1499 74.5978 60.2649 74.3296C60.6999 73.3691 61.1505 72.4149 61.6042 71.4731C61.6051 71.4648 61.6051 71.4564 61.6042 71.4481C61.6819 71.286 61.7596 71.1363 61.8404 70.9648C62.207 70.1976 62.5892 69.4367 62.9808 68.682C63.161 68.3328 63.3381 67.9866 63.5215 67.6404C63.5619 67.5594 63.6023 67.4814 63.6489 67.4003C63.8353 67.0417 64.0249 66.6862 64.2175 66.3307C65.1767 64.5573 66.1742 62.8109 67.21 61.0916C67.3001 60.945 67.384 60.7984 67.4741 60.655C67.6357 60.3899 67.7849 60.1248 67.9651 59.8629C68.3939 59.1644 68.8352 58.4689 69.2795 57.7797C69.5903 57.2932 69.901 56.8068 70.2366 56.3265C71.0446 55.1103 71.8732 53.9097 72.7226 52.7246C73.572 51.5396 74.4545 50.3546 75.3701 49.1695C75.4944 49.0074 75.6187 48.8577 75.7492 48.6862L77.0761 47.0115L77.2594 46.7839L77.7411 46.1945C78.4527 45.3244 79.1829 44.4637 79.9163 43.6124C83.6093 39.3408 87.5855 35.3244 91.8178 31.5905C91.9825 31.4377 92.1503 31.2787 92.315 31.1477C93.1043 30.4585 93.906 29.7787 94.7077 29.1113H255.735C256.462 29.7122 257.179 30.3223 257.885 30.9419C258.743 30.3036 259.615 29.6934 260.502 29.1113H305.87C306.854 29.1121 307.797 29.5029 308.495 30.1986C309.193 30.8942 309.589 31.8384 309.596 32.8255Z" fill="white"/>
<path d="M294.691 56.3076V59.844H67.9883C68.4171 59.1455 68.8584 58.45 69.3058 57.7608C69.6166 57.2744 69.9273 56.7879 70.2598 56.3076H294.691Z" fill="#3F3D56"/>
<path d="M246.066 173.704V39.0312H242.543V173.704H246.066Z" fill="#3F3D56"/>
<path d="M181.234 173.704V39.0312H177.711V173.704H181.234Z" fill="#3F3D56"/>
<path d="M116.406 173.704L116.406 39.0312H112.882L112.882 173.704H116.406Z" fill="#3F3D56"/>
<path d="M75.9467 67.3818V81.3091H61.6152V71.4546C61.6152 71.4546 61.6152 71.439 61.6152 71.4296C61.6929 71.2675 61.7706 71.1178 61.8514 70.9463C62.2212 70.1791 62.6003 69.4182 62.9949 68.6635C63.1721 68.3143 63.3492 67.9681 63.5325 67.622C63.5729 67.5409 63.6164 67.4629 63.6599 67.3818H75.9467Z" fill="url(#paint0_linear)"/>
<path d="M75.7007 67.6217V81.0686H61.8633V70.9366C62.2331 70.1695 62.6122 69.4086 63.0068 68.6539C63.1839 68.3046 63.3611 67.9585 63.5444 67.6123L75.7007 67.6217Z" fill="#7CFCFF"/>
<path d="M133.995 63.1377H119.66V77.0649H133.995V63.1377Z" fill="url(#paint1_linear)"/>
<path d="M133.749 63.3779H119.908V76.8249H133.749V63.3779Z" fill="#7CFCFF"/>
<path d="M198.739 90.1777H184.404V104.105H198.739V90.1777Z" fill="url(#paint2_linear)"/>
<path d="M198.493 90.418H184.652V103.865H198.493V90.418Z" fill="#7CFCFF"/>
<path d="M264.803 99.4023H250.469V113.33H264.803V99.4023Z" fill="url(#paint3_linear)"/>
<path d="M264.553 99.6426H250.713V113.09H264.553V99.6426Z" fill="#7CFCFF"/>
<path d="M282.504 108.418H268.17V122.345H282.504V108.418Z" fill="url(#paint4_linear)"/>
<path d="M282.258 108.658H268.418V122.105H282.258V108.658Z" fill="#7CFCFF"/>
<path d="M304.704 84.3271H290.369V98.2544H304.704V84.3271Z" fill="url(#paint5_linear)"/>
<path d="M304.454 84.5674H290.613V98.0144H304.454V84.5674Z" fill="#7CFCFF"/>
<path d="M300.21 103.868H285.875V117.795H300.21V103.868Z" fill="url(#paint6_linear)"/>
<path d="M299.962 104.108H286.121V117.555H299.962V104.108Z" fill="#7CFCFF"/>
<path d="M153.551 63.1377H139.217V77.0649H153.551V63.1377Z" fill="url(#paint7_linear)"/>
<path d="M153.305 63.3779H139.465V76.8249H153.305V63.3779Z" fill="#7CFCFF"/>
<path d="M86.5729 96.9014H72.2383V110.829H86.5729V96.9014Z" fill="url(#paint8_linear)"/>
<path d="M86.3249 97.1416H72.4844V110.589H86.3249V97.1416Z" fill="#FFFFA5"/>
<path d="M144.34 83.2139H130.006V97.1411H144.34V83.2139Z" fill="url(#paint9_linear)"/>
<path d="M144.094 83.4541H130.254V96.9011H144.094V83.4541Z" fill="#FFFFA5"/>
<path d="M219.055 74.8906H204.721V88.8178H219.055V74.8906Z" fill="url(#paint10_linear)"/>
<path d="M218.807 75.1309H204.967V88.5779H218.807V75.1309Z" fill="#FFFFA5"/>
<path d="M294.688 65.124H280.354V79.0513H294.688V65.124Z" fill="url(#paint11_linear)"/>
<path d="M294.442 65.3633H280.602V78.8102H294.442V65.3633Z" fill="#FFFFA5"/>
<path d="M237.967 63.1377H223.633V77.0649H237.967V63.1377Z" fill="url(#paint12_linear)"/>
<path d="M237.717 63.3779H223.877V76.8249H237.717V63.3779Z" fill="#FFFFA5"/>
<path d="M237.153 90.1777H222.818V104.105H237.153V90.1777Z" fill="url(#paint13_linear)"/>
<path d="M236.907 90.418H223.066V103.865H236.907V90.418Z" fill="#FFFFA5"/>
<path d="M172.799 69.8633H158.465V83.7905H172.799V69.8633Z" fill="url(#paint14_linear)"/>
<path d="M172.551 70.1006H158.711V83.5476H172.551V70.1006Z" fill="#FFFFA5"/>
<path d="M96.6354 74.3447H82.3008V88.272H96.6354V74.3447Z" fill="url(#paint15_linear)"/>
<path d="M96.3894 74.585H82.5488V88.032H96.3894V74.585Z" fill="#FF69B4"/>
<path d="M103.803 90.1777H89.4688V104.105H103.803V90.1777Z" fill="url(#paint16_linear)"/>
<path d="M103.553 90.418H89.7129V103.865H103.553V90.418Z" fill="#FF69B4"/>
<path d="M163.262 92.4385H148.928V106.366H163.262V92.4385Z" fill="url(#paint17_linear)"/>
<path d="M163.012 92.6787H149.172V106.126H163.012V92.6787Z" fill="#FF69B4"/>
<path d="M268.171 65.124H253.836V79.0513H268.171V65.124Z" fill="url(#paint18_linear)"/>
<path d="M267.923 65.3633H254.082V78.8102H267.923V65.3633Z" fill="#FF69B4"/>
<path d="M280.852 84.3271H266.518V98.2544H280.852V84.3271Z" fill="url(#paint19_linear)"/>
<path d="M280.608 84.5674H266.768V98.0144H280.608V84.5674Z" fill="#FF69B4"/>
<path d="M199.991 63.1377H185.656V77.0649H199.991V63.1377Z" fill="url(#paint20_linear)"/>
<path d="M199.745 63.3779H185.904V76.8249H199.745V63.3779Z" fill="#FF69B4"/>
<path d="M217.434 103.868H203.1V117.795H217.434V103.868Z" fill="url(#paint21_linear)"/>
<path d="M217.184 104.108H203.344V117.555H217.184V104.108Z" fill="#FF69B4"/>
<path d="M257.203 95.3858C257.162 96.9669 256.628 98.5043 256.544 100.082C261.205 100.313 265.77 98.0522 270.366 98.7445C269.082 97.9118 268.396 96.4056 267.992 94.9243C267.475 93.0138 267.321 91.0229 267.538 89.0553C267.55 88.9502 267.568 88.846 267.594 88.7434C267.765 87.97 268.215 86.8723 268.088 86.2642C267.933 85.4596 267.174 85.6187 266.494 85.6655C264.416 85.825 262.348 86.0925 260.298 86.4669C259.763 86.5605 254.558 87.864 254.48 87.7299C255.338 89.2174 256.211 90.7642 256.733 92.3858C257.057 93.3523 257.215 94.3665 257.203 95.3858Z" fill="#EE8E9E"/>
<path d="M211.278 90.4961C211.677 91.0431 212.156 91.5267 212.698 91.9306C213.05 92.2207 213.41 92.5169 213.789 92.782C214.463 93.3003 215.266 93.6238 216.11 93.7175C217.217 93.7924 219.566 93.1406 220.253 92.1895C220.542 91.7119 220.68 91.1571 220.647 90.599C220.636 89.8417 220.508 89.0907 220.268 88.3724C219.837 87.205 219.232 86.1095 218.475 85.1229C217.677 84.0065 216.788 82.9088 215.598 82.2321C215.201 82.0194 214.792 81.8309 214.373 81.6677L212.198 80.7758C212.074 80.7169 211.94 80.682 211.803 80.6729C211.222 80.6729 211.117 81.5679 211.446 82.0481C212.105 83.018 213.587 83.2955 214.004 84.387C213.651 84.3953 213.311 84.5158 213.032 84.7311C212.752 84.9464 212.549 85.2452 212.45 85.5845C212.434 85.7647 212.361 85.935 212.242 86.071C212.052 86.2238 211.754 86.1365 211.536 86.2518C211.154 86.4577 211.322 87.0315 211.281 87.4681C211.244 87.8548 211.002 88.1884 210.884 88.5595C210.803 88.8916 210.797 89.2373 210.865 89.5721C210.933 89.9069 211.075 90.2224 211.278 90.4961Z" fill="#EE8E9E"/>
<path d="M275.291 249.166C274.933 248.807 274.358 248.87 273.849 248.948C271.169 249.372 268.461 249.592 265.748 249.606C265.409 247.94 266.394 246.322 266.711 244.653C266.753 244.224 266.857 243.804 267.022 243.406C267.401 242.67 268.265 242.333 269.073 242.159C270.533 241.847 272.802 241.304 273.631 242.782C274.622 244.563 274.936 247.189 275.291 249.166Z" fill="#65617D"/>
<path d="M245.611 242.878C246.711 243.633 248.079 243.866 249.402 244.038C250.726 244.21 252.087 244.334 253.287 244.927C254.321 245.438 255.191 246.28 256.288 246.648C257.283 246.982 258.37 246.891 259.396 246.698C260.639 246.467 261.938 246.015 262.603 244.949C263.196 244.013 263.131 242.8 263.05 241.684C262.954 240.436 262.864 239.158 262.771 237.895C262.773 237.574 262.693 237.258 262.537 236.978C261.646 235.677 259.483 237.523 258.327 237.52C256.49 237.52 254.52 236.522 253.2 235.3C253.085 235.175 252.95 235.07 252.802 234.988C252.277 234.751 251.755 235.188 251.289 235.568C251.239 235.612 251.186 235.652 251.133 235.693C250.061 236.547 248.625 236.719 247.302 237.065C245.978 237.411 244.558 238.107 244.148 239.416C244.121 239.499 244.1 239.583 244.085 239.669C243.849 240.895 244.583 242.17 245.611 242.878Z" fill="#3F3D56"/>
<path opacity="0.05" d="M245.611 242.878C246.711 243.633 248.079 243.866 249.402 244.038C250.726 244.21 252.087 244.334 253.287 244.927C254.321 245.438 255.191 246.28 256.288 246.648C257.283 246.982 258.37 246.891 259.396 246.698C260.639 246.467 261.938 246.015 262.603 244.949C263.196 244.013 263.131 242.8 263.05 241.684C262.954 240.436 262.864 239.158 262.771 237.895C262.773 237.574 262.693 237.258 262.537 236.978C261.646 235.677 259.483 237.523 258.327 237.52C256.49 237.52 254.52 236.522 253.2 235.3C253.085 235.175 252.95 235.07 252.802 234.988C252.277 234.751 251.755 235.188 251.289 235.568C251.239 235.612 251.186 235.652 251.133 235.693C250.061 236.547 248.625 236.719 247.302 237.065C245.978 237.411 244.558 238.107 244.148 239.416C244.121 239.499 244.1 239.583 244.085 239.669C243.849 240.895 244.583 242.17 245.611 242.878Z" fill="black"/>
<path d="M245.612 243.303C246.712 244.057 248.079 244.291 249.403 244.463C250.727 244.634 252.088 244.759 253.287 245.351C254.322 245.866 255.192 246.705 256.289 247.073C257.283 247.407 258.371 247.316 259.397 247.123C260.708 246.842 261.859 246.059 262.603 244.94C263.197 244.004 263.132 242.791 263.051 241.675C262.955 240.427 262.864 239.149 262.771 237.886C262.774 237.565 262.694 237.249 262.538 236.969C261.646 235.669 259.484 237.515 258.328 237.512C256.491 237.512 254.521 236.514 253.2 235.291C253.086 235.166 252.951 235.061 252.803 234.979C252.277 234.742 251.755 235.179 251.289 235.559C251.596 236.504 252.03 237.402 252.579 238.229C253.511 239.598 254.978 240.646 256.618 240.767C257.439 240.827 258.281 240.664 259.073 240.876C259.866 241.088 260.605 241.902 260.316 242.676C260.027 243.449 259.073 243.611 258.272 243.639C257.15 243.699 256 243.755 254.937 243.405C254.288 243.187 253.694 242.829 253.073 242.563C250.385 241.444 246.989 242.071 244.767 240.181C244.557 239.987 244.33 239.813 244.089 239.66C243.508 240.895 244.583 242.595 245.612 243.303Z" fill="#E8EAF2"/>
<path opacity="0.05" d="M245.612 243.303C246.712 244.057 248.079 244.291 249.403 244.463C250.727 244.634 252.088 244.759 253.287 245.351C254.322 245.866 255.192 246.705 256.289 247.073C257.283 247.407 258.371 247.316 259.397 247.123C260.708 246.842 261.859 246.059 262.603 244.94C263.197 244.004 263.132 242.791 263.051 241.675C262.955 240.427 262.864 239.149 262.771 237.886C262.774 237.565 262.694 237.249 262.538 236.969C261.646 235.669 259.484 237.515 258.328 237.512C256.491 237.512 254.521 236.514 253.2 235.291C253.086 235.166 252.951 235.061 252.803 234.979C252.277 234.742 251.755 235.179 251.289 235.559C251.596 236.504 252.03 237.402 252.579 238.229C253.511 239.598 254.978 240.646 256.618 240.767C257.439 240.827 258.281 240.664 259.073 240.876C259.866 241.088 260.605 241.902 260.316 242.676C260.027 243.449 259.073 243.611 258.272 243.639C257.15 243.699 256 243.755 254.937 243.405C254.288 243.187 253.694 242.829 253.073 242.563C250.385 241.444 246.989 242.071 244.767 240.181C244.557 239.987 244.33 239.813 244.089 239.66C243.508 240.895 244.583 242.595 245.612 243.303Z" fill="black"/>
<path d="M274.79 160.728C275.647 164.95 274.834 169.341 272.521 172.971C271.9 173.95 271.154 174.87 270.682 175.934C270.372 176.694 270.13 177.481 269.961 178.285L267.922 186.764C267.369 189.053 266.816 191.386 266.99 193.734C267.105 195.371 267.515 197.211 266.512 198.505C266.264 198.751 266.055 199.033 265.89 199.341C265.794 199.703 265.794 200.083 265.89 200.445C266.922 206.601 267.689 213.034 265.825 218.991C264.135 224.389 264.035 230.37 262.599 235.831C262.422 236.511 262.217 237.225 261.705 237.702C261.32 238.021 260.86 238.236 260.368 238.326C258.249 238.834 256.018 238.238 254.035 237.321C252.646 236.676 251.152 235.544 251.27 234.013C251.329 233.283 251.751 232.644 252.04 231.973C252.603 230.657 252.662 229.188 252.802 227.763C253.184 224.183 254.284 220.731 255.114 217.229C255.943 213.727 256.509 210.072 255.807 206.542C254.375 199.244 252.08 192.144 248.97 185.392C248.836 185.037 248.624 184.717 248.349 184.457C248.069 184.226 247.699 184.12 247.46 183.833C247.221 183.546 247.149 183.109 247.056 182.726C246.745 181.609 245.829 180.786 245.213 179.804C243.66 177.328 244.151 174.153 244.21 171.228C244.266 168.381 243.858 165.508 244.321 162.702C244.784 159.895 246.388 157.026 249.085 156.153C250.421 155.719 251.866 155.816 253.265 155.957C260.642 156.696 267.832 158.058 274.79 160.728Z" fill="#303D5C"/>
<path opacity="0.05" d="M274.79 160.728C275.647 164.95 274.834 169.341 272.521 172.971C271.9 173.95 271.154 174.87 270.682 175.934C270.372 176.694 270.13 177.481 269.961 178.285L267.922 186.764C267.369 189.053 266.816 191.386 266.99 193.734C267.105 195.371 267.515 197.211 266.512 198.505C266.264 198.751 266.055 199.033 265.89 199.341C265.794 199.703 265.794 200.083 265.89 200.445C266.922 206.601 267.689 213.034 265.825 218.991C264.135 224.389 264.035 230.37 262.599 235.831C262.422 236.511 262.217 237.225 261.705 237.702C261.32 238.021 260.86 238.236 260.368 238.326C258.249 238.834 256.018 238.238 254.035 237.321C252.646 236.676 251.152 235.544 251.27 234.013C251.329 233.283 251.751 232.644 252.04 231.973C252.603 230.657 252.662 229.188 252.802 227.763C253.184 224.183 254.284 220.731 255.114 217.229C255.943 213.727 256.509 210.072 255.807 206.542C254.375 199.244 252.08 192.144 248.97 185.392C248.836 185.037 248.624 184.717 248.349 184.457C248.069 184.226 247.699 184.12 247.46 183.833C247.221 183.546 247.149 183.109 247.056 182.726C246.745 181.609 245.829 180.786 245.213 179.804C243.66 177.328 244.151 174.153 244.21 171.228C244.266 168.381 243.858 165.508 244.321 162.702C244.784 159.895 246.388 157.026 249.085 156.153C250.421 155.719 251.866 155.816 253.265 155.957C260.642 156.696 267.832 158.058 274.79 160.728Z" fill="black"/>
<path d="M244.623 178.575C244.646 179.68 244.771 180.78 244.996 181.862C246.301 189.212 247.692 196.544 249.169 203.86C249.3 204.484 249.427 205.129 249.598 205.753C250.149 207.789 251.112 209.689 252.426 211.335C258.578 219.032 259.11 230.212 262.45 239.495C262.674 240.119 262.901 240.743 263.14 241.366C263.742 242.941 264.43 244.48 265.2 245.979C265.289 246.198 265.435 246.388 265.623 246.531C265.831 246.635 266.063 246.68 266.294 246.662C269.302 246.682 272.274 246.006 274.98 244.688C275.369 244.547 275.698 244.276 275.912 243.92C276.014 243.637 276.047 243.333 276.008 243.035C275.915 241.195 275.803 239.293 274.93 237.671C274.348 236.703 273.628 235.827 272.792 235.07C272.531 229.295 271.962 223.507 270.698 217.865C270.048 214.981 269.243 212.065 267.59 209.626C266.347 207.827 264.595 206.052 264.812 203.879C264.908 202.943 265.306 201.74 264.532 201.178C264.194 200.932 263.693 200.901 263.467 200.555C263.375 200.39 263.324 200.206 263.317 200.018C263.158 198.528 263.25 197.021 263.591 195.562C263.815 194.595 264.15 193.647 264.253 192.659C264.355 191.67 264.181 190.594 263.526 189.852C263.485 187.868 263.526 185.798 263.498 183.833C263.479 182.701 263.457 181.554 263.774 180.471C263.926 179.951 264.153 179.455 264.268 178.912C264.682 177.01 263.647 174.727 264.89 173.218C265.402 172.594 266.192 172.282 266.86 171.827C268.199 170.929 269.075 169.463 269.563 167.926C270.051 166.388 270.185 164.76 270.331 163.148C270.367 162.805 270.367 162.459 270.331 162.116C270.31 161.939 270.264 161.765 270.194 161.601C269.812 160.741 268.786 160.407 267.873 160.186C262.072 158.789 256.126 158.092 250.16 158.109C247.954 156.599 246.711 157.139 245.776 158.732C245.261 159.708 244.845 160.733 244.533 161.792C244.104 163.086 244.079 170.339 243.663 171.64C243.082 173.343 244.645 176.798 244.623 178.575Z" fill="#303D5C"/>
<path d="M284.52 112.582C284.685 113.723 284.138 114.846 284.076 115.996C284.023 117 284.343 117.983 284.526 118.974C285.238 122.841 283.871 126.755 282.475 130.429C282.212 131.021 282.049 131.654 281.991 132.3C281.953 133.5 282.64 134.598 282.83 135.783C283.224 138.278 281.397 140.614 281.357 143.137C281.357 144.297 281.705 145.479 281.416 146.601C281.223 147.353 280.757 147.995 280.425 148.697C279.837 149.944 279.682 151.345 279.119 152.595C278.11 154.859 275.934 156.337 273.868 157.694C272.69 157.301 271.416 156.833 270.76 155.77C270.477 155.246 270.295 154.674 270.223 154.083C269.775 151.504 269.791 148.872 269.806 146.255C269.774 144.012 269.897 141.77 270.173 139.544C270.59 136.7 271.509 133.959 272.168 131.162C273.001 127.635 273.411 123.989 274.722 120.605C275.86 117.63 277.634 114.961 279.502 112.407C280.213 111.431 280.776 110.037 282.158 110.261C282.741 110.36 283.279 110.636 283.701 111.05C284.124 111.465 284.409 111.999 284.52 112.582Z" fill="#6C63FF"/>
<path opacity="0.05" d="M284.52 112.582C284.685 113.723 284.138 114.846 284.076 115.996C284.023 117 284.343 117.983 284.526 118.974C285.238 122.841 283.871 126.755 282.475 130.429C282.212 131.021 282.049 131.654 281.991 132.3C281.953 133.5 282.64 134.598 282.83 135.783C283.224 138.278 281.397 140.614 281.357 143.137C281.357 144.297 281.705 145.479 281.416 146.601C281.223 147.353 280.757 147.995 280.425 148.697C279.837 149.944 279.682 151.345 279.119 152.595C278.11 154.859 275.934 156.337 273.868 157.694C272.69 157.301 271.416 156.833 270.76 155.77C270.477 155.246 270.295 154.674 270.223 154.083C269.775 151.504 269.791 148.872 269.806 146.255C269.774 144.012 269.897 141.77 270.173 139.544C270.59 136.7 271.509 133.959 272.168 131.162C273.001 127.635 273.411 123.989 274.722 120.605C275.86 117.63 277.634 114.961 279.502 112.407C280.213 111.431 280.776 110.037 282.158 110.261C282.741 110.36 283.279 110.636 283.701 111.05C284.124 111.465 284.409 111.999 284.52 112.582Z" fill="black"/>
<path opacity="0.1" d="M254.471 87.7172C255.328 89.2047 256.202 90.7515 256.724 92.3731C257.56 92.5801 258.419 92.6848 259.281 92.685C262.628 92.685 264.999 90.7733 266.966 88.3596C267.137 87.5831 268.209 86.8627 268.078 86.2515C267.923 85.4469 267.165 85.606 266.484 85.6528C264.406 85.8123 262.338 86.0798 260.288 86.4542C259.753 86.5478 254.558 87.8513 254.471 87.7172Z" fill="black"/>
<path d="M259.29 92.3921C265.213 92.3921 270.014 87.5738 270.014 81.6301C270.014 75.6865 265.213 70.8682 259.29 70.8682C253.368 70.8682 248.566 75.6865 248.566 81.6301C248.566 87.5738 253.368 92.3921 259.29 92.3921Z" fill="#EE8E9E"/>
<path opacity="0.1" d="M245.738 158.741C247.603 158.632 249.467 158.707 251.332 158.782C252.496 158.793 253.657 158.913 254.8 159.14C256.207 159.452 257.525 160.104 258.914 160.506C261.139 161.158 263.488 161.186 265.791 161.414C267.304 161.562 268.807 161.798 270.293 162.122C270.273 161.944 270.227 161.771 270.157 161.607C269.774 160.746 268.749 160.413 267.835 160.191C262.034 158.795 256.088 158.097 250.123 158.114C247.917 156.605 246.674 157.144 245.738 158.741Z" fill="black"/>
<path d="M253.049 99.2498C253.518 99.7924 254.146 100.391 254.839 100.217C255.089 100.129 255.324 100.003 255.535 99.8423C256.778 99.0409 258.288 98.8538 259.742 98.6355C262.674 98.192 265.57 97.5385 268.409 96.6802C269.233 96.3786 270.097 96.202 270.972 96.1562C272.79 96.1563 274.391 97.3787 275.54 98.8007C276.69 100.223 277.486 101.885 278.604 103.323C279.4 104.349 280.347 105.253 281.09 106.316C282.955 109.001 283.371 112.507 282.886 115.753C282.401 118.999 281.109 122.055 279.829 125.077C279.095 126.808 278.356 128.548 277.343 130.126C277.775 132.593 277.548 135.412 276.379 137.61C275.997 138.331 275.531 139.033 275.407 139.84C275.348 140.385 275.37 140.936 275.472 141.474L276.019 145.369C276.184 146.557 276.351 147.743 276.566 148.921C276.96 151.079 277.498 153.421 276.5 155.373C275.307 157.709 276.56 160.706 276.246 163.313C272.891 162.011 269.375 161.172 265.795 160.818C263.49 160.591 261.134 160.563 258.919 159.914C257.53 159.509 256.215 158.866 254.804 158.542C253.661 158.317 252.499 158.198 251.333 158.186C248.764 158.083 246.175 157.981 243.633 158.361C243.425 158.392 243.176 158.408 243.052 158.239C242.996 158.145 242.969 158.037 242.974 157.928C242.935 156.971 243.163 156.023 243.633 155.189C243.944 154.616 244.407 154.051 244.394 153.393C244.371 153.085 244.296 152.784 244.171 152.501L243.046 149.483C242.092 146.938 242.546 143.978 242.051 141.306C241.666 139.216 241.419 137.102 241.312 134.978C241.219 133.164 241.278 131.196 242.368 129.746C242.688 129.396 242.964 129.01 243.192 128.595C243.349 128.155 243.416 127.687 243.388 127.22C243.413 123.59 243.309 119.961 243.077 116.333C244.031 114.618 245.022 112.862 245.973 111.147C247.079 109.151 248.204 107.115 248.652 104.876C248.962 103.391 248.938 101.866 249.149 100.369C249.17 99.9883 249.301 99.6218 249.528 99.3153C249.892 98.9037 250.504 98.8444 251.054 98.86C251.735 98.8873 252.407 99.0187 253.049 99.2498Z" fill="#6C63FF"/>
<path opacity="0.1" d="M213.783 92.7816C214.458 93.2999 215.26 93.6234 216.104 93.7171C217.211 93.792 219.56 93.1402 220.247 92.1891C220.536 91.7115 220.674 91.1567 220.641 90.5986C220.492 90.5497 220.338 90.5194 220.181 90.5082C218.979 90.4365 217.751 90.3648 216.583 90.6548C215.415 90.9448 214.284 91.6558 213.786 92.7598L213.783 92.7816Z" fill="black"/>
<path d="M249.469 116.062C248.813 116.876 248.136 117.718 247.21 118.198C246.144 118.753 244.888 118.766 243.689 118.741C238.746 118.635 233.823 118.092 228.975 117.119C228.423 117.024 227.881 116.878 227.356 116.683C226.774 116.404 226.225 116.061 225.719 115.66C224.125 114.509 222.506 113.337 221.291 111.784C219.848 109.91 218.942 107.677 218.668 105.325C217.512 104.259 216.9 102.74 216.322 101.271C216.038 100.649 215.857 99.9842 215.787 99.3033C215.756 98.6079 216.216 97.8782 216.098 97.1921C215.876 96.0113 215.28 94.934 214.398 94.1204C214.21 93.9873 214.068 93.7988 213.991 93.5809C213.968 93.3991 214.003 93.2147 214.091 93.0539C214.582 91.9499 215.713 91.2389 216.887 90.9489C218.062 90.6589 219.283 90.7337 220.486 90.8054C220.921 90.8335 221.238 91.0362 221.663 91.1173L222.502 93.3345C222.616 93.7051 222.803 94.0488 223.052 94.3449C223.239 94.5144 223.438 94.6707 223.646 94.8127C224.071 95.176 224.401 95.6383 224.607 96.1591C224.812 96.6799 224.888 97.2433 224.827 97.8002C225.585 98.0952 226.202 98.6689 226.554 99.4046C226.906 100.14 226.965 100.983 226.719 101.761C227.35 101.897 227.936 102.193 228.42 102.621C228.904 103.049 229.271 103.595 229.485 104.206C229.545 104.484 229.668 104.744 229.845 104.967C230.121 105.182 230.463 105.292 230.812 105.278C231.744 105.338 232.586 106.086 233.447 105.681C234.418 105.223 235.504 105.07 236.564 105.241C236.782 105.293 237.007 105.313 237.232 105.3C237.423 105.267 237.608 105.202 237.779 105.11C238.166 104.884 238.585 104.718 239.022 104.617C239.241 104.572 239.469 104.591 239.678 104.672C239.887 104.753 240.068 104.893 240.199 105.076C240.51 104.745 240.681 104.321 240.954 103.969C241.075 103.78 241.246 103.628 241.448 103.531C241.65 103.434 241.875 103.396 242.098 103.42C241.812 103.164 242.098 102.656 242.474 102.562C242.85 102.469 243.235 102.606 243.617 102.606C244.609 102.606 245.37 101.695 246.333 101.458C247.219 101.243 248.4 101.502 248.853 100.707C249.015 100.426 249.046 100.046 249.32 99.874C249.504 99.7816 249.715 99.7562 249.916 99.8023C250.546 99.8869 251.158 100.073 251.728 100.354C252.66 104 252.169 107.786 251.461 111.481C251.122 113.237 250.587 114.659 249.469 116.062Z" fill="#6C63FF"/>
<path opacity="0.1" d="M249.498 129.124L254.116 138.48C253.615 137.616 252.562 137.279 251.732 136.727C250.676 135.963 249.88 134.891 249.455 133.655C249.028 132.424 248.73 131.151 248.566 129.857C248.473 129.265 248.277 128.432 248.566 127.896C249.103 128.005 249.277 128.684 249.498 129.124Z" fill="black"/>
<path opacity="0.1" d="M262.784 137.048C263.825 138.084 265.102 138.844 266.249 139.761C268.927 141.901 270.835 144.838 272.7 147.72C273.226 148.477 273.668 149.291 274.017 150.146C273.8 150.336 273.473 150.146 273.259 149.949L269.629 146.75C269.185 146.384 268.779 145.972 268.421 145.521C267.799 144.673 267.513 143.609 266.942 142.714C266.37 141.819 265.537 141.155 264.738 140.46C263.94 139.764 260.077 136.496 261.009 135.236C261.684 135.573 262.24 136.509 262.784 137.048Z" fill="black"/>
<path d="M254.86 96.5486C256.01 95.8283 257.365 95.5258 258.698 95.2794C259.498 95.097 260.322 95.0381 261.14 95.1048C261.895 95.1983 262.619 95.4915 263.381 95.532C264.447 95.5944 265.469 95.1578 266.488 94.8771C267.507 94.5964 268.71 94.4842 269.577 95.111C269.761 95.2931 269.995 95.4177 270.248 95.4696C270.511 95.4375 270.756 95.3165 270.941 95.1266C271.671 94.603 272.557 94.3437 273.453 94.3913C274.349 94.4389 275.202 94.7905 275.873 95.3885C277.84 97.2378 277.619 100.852 279.912 102.249C280.549 102.636 281.36 102.842 281.73 103.497C281.818 103.703 281.922 103.902 282.041 104.092C282.195 104.263 282.383 104.398 282.594 104.488C283.263 104.788 283.9 105.155 284.496 105.583C284.792 105.8 285.042 106.075 285.23 106.391C285.418 106.707 285.54 107.058 285.59 107.423C285.6 107.962 285.484 108.496 285.251 108.982C284.124 111.758 282.168 114.116 279.652 115.73C277.136 117.345 274.183 118.139 271.199 118.001C270.674 117.976 270.105 117.904 269.726 117.539C269.505 117.289 269.33 117.001 269.21 116.688C268.129 114.408 266.103 112.724 264.801 110.557C264.03 109.266 263.536 107.822 262.734 106.55C261.541 104.616 259.692 103.179 257.89 101.81C256.871 101.03 255.736 100.213 254.453 100.266C253.313 100.316 252.48 100.378 252.899 98.9717C253.243 97.9548 253.939 97.0953 254.86 96.5486Z" fill="#6C63FF"/>
<path opacity="0.05" d="M254.86 96.5486C256.01 95.8283 257.365 95.5258 258.698 95.2794C259.498 95.097 260.322 95.0381 261.14 95.1048C261.895 95.1983 262.619 95.4915 263.381 95.532C264.447 95.5944 265.469 95.1578 266.488 94.8771C267.507 94.5964 268.71 94.4842 269.577 95.111C269.761 95.2931 269.995 95.4177 270.248 95.4696C270.511 95.4375 270.756 95.3165 270.941 95.1266C271.671 94.603 272.557 94.3437 273.453 94.3913C274.349 94.4389 275.202 94.7905 275.873 95.3885C277.84 97.2378 277.619 100.852 279.912 102.249C280.549 102.636 281.36 102.842 281.73 103.497C281.818 103.703 281.922 103.902 282.041 104.092C282.195 104.263 282.383 104.398 282.594 104.488C283.263 104.788 283.9 105.155 284.496 105.583C284.792 105.8 285.042 106.075 285.23 106.391C285.418 106.707 285.54 107.058 285.59 107.423C285.6 107.962 285.484 108.496 285.251 108.982C284.124 111.758 282.168 114.116 279.652 115.73C277.136 117.345 274.183 118.139 271.199 118.001C270.674 117.976 270.105 117.904 269.726 117.539C269.505 117.289 269.33 117.001 269.21 116.688C268.129 114.408 266.103 112.724 264.801 110.557C264.03 109.266 263.536 107.822 262.734 106.55C261.541 104.616 259.692 103.179 257.89 101.81C256.871 101.03 255.736 100.213 254.453 100.266C253.313 100.316 252.48 100.378 252.899 98.9717C253.243 97.9548 253.939 97.0953 254.86 96.5486Z" fill="black"/>
<path d="M249.279 252.543C250.055 253.269 251.124 253.587 252.159 253.815C254.518 254.333 256.929 254.517 259.334 254.704L261.677 254.885C263.964 255.056 266.255 255.234 268.551 255.243C271.384 255.254 274.213 255.008 277.003 254.51C277.115 254.522 277.228 254.507 277.333 254.467C277.439 254.426 277.533 254.361 277.608 254.277C277.683 254.194 277.738 254.093 277.767 253.984C277.797 253.875 277.8 253.76 277.777 253.65C277.729 250.782 277.381 247.928 276.739 245.133C276.472 243.985 274.421 246.558 274.331 246.667C273.762 247.316 273.33 247.603 272.466 247.659C270.108 247.79 267.463 246.349 265.59 245.071C265.189 244.77 264.762 244.505 264.315 244.279C263.99 244.125 263.643 244.019 263.287 243.967C262.072 243.855 260.851 244.103 259.776 244.681C258.368 245.383 257.131 246.39 255.736 247.11C254.603 247.696 253.379 248.086 252.116 248.261C250.839 248.439 249.319 248.523 248.657 249.633C248.113 250.562 248.505 251.81 249.279 252.543Z" fill="#3F3D56"/>
<path d="M249.279 252.967C250.056 253.694 251.124 254.012 252.159 254.239C254.518 254.757 256.929 254.941 259.334 255.128L261.677 255.309C263.964 255.481 266.255 255.658 268.551 255.668C271.385 255.678 274.213 255.433 277.003 254.935C277.13 254.932 277.256 254.902 277.371 254.849C277.486 254.795 277.59 254.718 277.674 254.623C277.774 254.467 278.2 253.846 278.196 253.662C278.15 250.797 277.376 247.937 276.736 245.146C276.469 243.998 274.418 246.571 274.328 246.68C273.759 247.329 273.327 247.616 272.463 247.672C270.105 247.803 267.46 246.362 265.587 245.083C265.186 244.783 264.759 244.518 264.312 244.291C263.987 244.137 263.64 244.032 263.284 243.979C263.595 245.682 266.022 247.74 267.277 248.367C269.819 249.633 272.839 248.991 275.667 249.15C275.874 249.144 276.079 249.195 276.261 249.297C276.602 249.521 276.621 250.004 276.612 250.413C276.587 251.093 276.5 251.888 275.916 252.234C275.625 252.375 275.305 252.442 274.983 252.431C267.994 252.739 260.99 252.493 254.039 251.695C252.868 251.616 251.715 251.36 250.621 250.934C249.907 250.599 249.241 250.169 248.642 249.655C247.759 250.363 248.505 252.24 249.279 252.967Z" fill="#E8EAF2"/>
<path d="M255.119 81.515C255.16 82.6283 254.405 84.7863 256.477 84.1845C257.72 83.8227 258.062 82.3539 259.631 82.6814C261.201 83.0088 261.561 84.9485 262.092 86.2177C262.525 87.2268 263.196 88.115 264.047 88.8056C264.898 89.4962 265.904 89.9684 266.977 90.1814C267.42 90.2859 267.88 90.2859 268.323 90.1814C269.336 89.8913 269.914 88.8435 270.327 87.8737C270.683 87.0523 270.979 86.206 271.213 85.3414C271.371 84.7281 271.475 84.102 271.524 83.4703C271.556 83.0427 271.556 82.6132 271.524 82.1855C271.334 79.6564 269.901 77.3487 268.062 75.6023C266.222 73.856 263.994 72.5992 261.791 71.3549C261.071 70.9035 260.292 70.555 259.476 70.3196C258.672 70.1569 257.848 70.1232 257.034 70.2198C255.961 70.2632 254.906 70.5119 253.926 70.9527C253.525 71.152 253.156 71.4117 252.832 71.7229C252.377 72.152 252.054 72.7028 251.9 73.3102C251.502 74.9475 252.54 76.4287 253.385 77.7105C254.134 78.8643 255.063 80.0836 255.119 81.515Z" fill="#3F3D56"/>
<path opacity="0.1" d="M220.217 105.399C220.661 104.28 222.526 101.18 221.985 100.113C221.426 100.909 220.952 101.761 220.568 102.655C220.217 103.522 220.503 104.685 220.217 105.399Z" fill="black"/>
<path opacity="0.1" d="M253.338 77.716C252.492 76.4218 251.451 74.9499 251.849 73.3158C252.046 72.5974 252.469 71.962 253.055 71.5039C252.917 71.7431 252.812 72.0002 252.744 72.2679C252.346 73.902 253.387 75.3864 254.233 76.6681C254.981 77.8158 255.911 79.0351 255.966 80.4665C256.007 81.5767 255.249 83.7378 257.324 83.1359C258.567 82.7773 258.909 81.3054 260.478 81.6359C262.048 81.9665 262.405 83.9 262.936 85.1692C263.371 86.1792 264.044 87.0678 264.897 87.7584C265.75 88.4489 266.758 88.9207 267.834 89.1328C268.276 89.2373 268.737 89.2373 269.179 89.1328C269.403 89.0659 269.613 88.9603 269.801 88.821C269.484 89.457 268.934 89.9446 268.266 90.1806C267.823 90.2851 267.363 90.2851 266.92 90.1806C265.848 89.9657 264.844 89.4927 263.994 88.8023C263.144 88.1119 262.474 87.2247 262.041 86.217C261.51 84.9478 261.165 83.0143 259.584 82.6806C258.002 82.3469 257.666 83.8251 256.429 84.1837C254.354 84.7856 255.112 82.6245 255.072 81.5143C255.019 80.0829 254.086 78.8636 253.338 77.716Z" fill="black"/>
<path opacity="0.1" d="M252.877 75.5057C253.066 75.8208 253.274 76.1248 253.498 76.4163C253.938 76.9701 254.429 77.4808 254.965 77.9412C255.275 78.2188 255.614 78.4776 255.956 78.7208C256.593 79.1696 257.262 79.5709 257.957 79.9215C259.986 80.9474 262.18 81.5899 264.365 82.2229L268.647 83.4703C269.172 83.8695 270.135 84.5899 271.198 85.3414C271.356 84.7281 271.46 84.102 271.509 83.4703C271.541 83.0427 271.541 82.6131 271.509 82.1855C271.319 79.6564 269.887 77.3487 268.047 75.6023C266.207 73.856 263.979 72.5992 261.776 71.3549C261.056 70.9035 260.277 70.555 259.461 70.3196C258.657 70.1569 257.833 70.1232 257.019 70.2198C255.946 70.2632 254.891 70.5119 253.911 70.9526C253.51 71.152 253.141 71.4117 252.818 71.7229C252.574 72.0801 252.388 72.4738 252.267 72.8892C252.025 73.7749 252.398 74.7229 252.877 75.5057Z" fill="black"/>
<path d="M252.876 75.2151C253.065 75.5302 253.273 75.8342 253.497 76.1257C253.937 76.6796 254.428 77.1902 254.964 77.6506C255.275 77.9282 255.613 78.187 255.955 78.4303C256.592 78.8791 257.261 79.2803 257.956 79.6309C259.985 80.6569 262.179 81.2993 264.364 81.9355L268.646 83.1829C270.14 84.318 275.14 88.0352 275.982 87.5706C276.974 87.0249 271.545 83.1673 271.545 83.1673L271.293 83.3575C272.089 82.8554 272.505 81.6922 272.685 80.6881C272.996 78.8887 273.152 77.0176 272.726 75.24C272.3 73.4625 271.237 71.7692 269.618 70.9365C268.897 70.5654 268.024 70.3128 267.505 69.7421C267.427 69.6577 267.358 69.5646 267.3 69.4646C267.27 69.4175 267.243 69.3685 267.219 69.318C267.163 69.1611 267.087 69.0123 266.993 68.8752C266.682 68.529 266.154 68.6319 265.703 68.6881L265.56 68.7037C265.479 68.7037 265.398 68.7037 265.318 68.7037C263.708 68.7411 262.148 67.8398 260.52 67.8398C258.733 67.8398 257.217 68.8752 255.644 69.5831C255.334 69.7265 255.023 69.8575 254.743 69.9916C253.609 70.5218 252.754 71.0862 252.285 72.5956C252.024 73.4843 252.397 74.4324 252.876 75.2151Z" fill="#6C63FF"/>
<path opacity="0.1" d="M265.328 68.7128C265.24 68.8633 265.209 69.0402 265.24 69.2116C265.271 69.3831 265.361 69.5379 265.496 69.6484C265.695 69.7902 265.929 69.8744 266.173 69.8916C266.347 69.9145 266.522 69.9281 266.698 69.9322C266.937 69.9501 267.176 69.9083 267.394 69.8105C267.437 69.7894 267.478 69.7632 267.515 69.7326C267.437 69.6482 267.368 69.555 267.31 69.455C267.27 69.4862 267.229 69.48 267.068 69.455C266.774 69.4396 266.483 69.3894 266.201 69.3053C266.051 69.2679 265.913 69.1901 265.804 69.0802C265.694 68.9703 265.617 68.8325 265.58 68.6816L265.328 68.7128Z" fill="black"/>
<path opacity="0.1" d="M271.45 83.1236C271.225 83.2648 270.973 83.3591 270.711 83.4011C270.523 83.451 270.33 83.4823 270.136 83.4947C269.644 83.473 269.165 83.3375 268.734 83.0986L271.45 83.1236Z" fill="black"/>
<path d="M136.847 116.031L137.009 115.987L137.428 116.888L140.887 124.373C140.737 124.561 140.6 124.759 140.477 124.965C140.433 125.037 140.39 125.109 140.349 125.193C140.309 125.277 140.265 125.361 140.228 125.449C140.212 125.476 140.2 125.505 140.191 125.536C140.181 125.555 140.185 125.555 140.166 125.598C140.147 125.642 140.132 125.689 140.116 125.732C140.093 125.764 140.08 125.793 140.055 125.822L140.051 125.835L140.035 125.873L140.001 125.996V126.007V126.05L139.983 126.144C139.982 126.147 139.982 126.149 139.982 126.152C139.982 126.154 139.982 126.155 139.983 126.156C139.982 126.158 139.982 126.159 139.982 126.161C139.982 126.164 139.982 126.166 139.983 126.169V126.172V126.181V126.185V126.197C139.984 126.205 139.984 126.214 139.983 126.222V126.247V126.266V126.306C139.974 126.41 139.974 126.514 139.983 126.618V126.696C139.809 126.646 139.616 126.462 139.461 126.007C139.41 125.857 139.384 125.7 139.383 125.542C139.353 124.567 140.172 123.538 140.302 123.376C140.308 123.369 140.312 123.363 140.315 123.359L137.27 116.919L136.847 116.031Z" fill="url(#paint22_linear)"/>
<path d="M140.781 127.669H140.8C140.858 127.646 140.911 127.613 140.958 127.572L140.951 127.585C140.953 127.583 140.956 127.581 140.958 127.579L140.912 127.653L140.884 127.697C140.868 127.72 140.855 127.744 140.843 127.769C140.815 127.813 140.79 127.86 140.765 127.909C140.76 127.918 140.755 127.928 140.75 127.937C140.691 128.055 140.647 128.18 140.616 128.308C140.616 128.311 140.616 128.314 140.616 128.318C140.616 128.321 140.616 128.324 140.616 128.327C140.616 128.327 140.616 128.328 140.616 128.329C140.616 128.329 140.616 128.33 140.616 128.33C140.616 128.331 140.616 128.331 140.616 128.332C140.616 128.332 140.616 128.333 140.616 128.333C140.615 128.34 140.615 128.347 140.616 128.353C140.616 128.355 140.616 128.357 140.616 128.358C140.618 128.361 140.619 128.364 140.619 128.367C140.619 128.371 140.618 128.374 140.616 128.377C140.538 128.26 140.438 128.161 140.321 128.084C140.228 128.028 140.152 127.948 140.102 127.851C140.052 127.755 140.03 127.646 140.039 127.538C140.041 127.413 140.064 127.29 140.107 127.173C140.159 127.304 140.235 127.425 140.331 127.529L140.377 127.572C140.415 127.605 140.458 127.632 140.505 127.65C140.523 127.658 140.541 127.664 140.561 127.669H140.592C140.654 127.685 140.719 127.685 140.781 127.669Z" fill="url(#paint23_linear)"/>
<path d="M152.735 234.615C152.735 234.615 157.396 235.188 159.643 234.409C161.889 233.629 158.947 237.761 155.892 238.74C153.732 239.372 151.507 239.751 149.261 239.869L145.669 236.48L141.856 236.773L142.521 240.515L141.337 240.627L140.877 235.719L152.735 234.615Z" fill="#444053"/>
<path opacity="0.1" d="M152.735 234.615C152.735 234.615 157.396 235.188 159.643 234.409C161.889 233.629 158.947 237.761 155.892 238.74C153.732 239.372 151.507 239.751 149.261 239.869L145.669 236.48L141.856 236.773L142.521 240.515L141.337 240.627L140.877 235.719L152.735 234.615Z" fill="black"/>
<path d="M159.45 243.184C159.45 243.184 165.027 244.409 167.84 243.72C170.652 243.031 166.618 247.709 162.796 248.551C158.974 249.393 154.618 249.174 154.618 249.174L150.662 244.637L146.001 244.559L146.383 249.19H144.932V243.184H159.45Z" fill="#444053"/>
<path opacity="0.1" d="M159.45 243.184C159.45 243.184 165.027 244.409 167.84 243.72C170.652 243.031 166.618 247.709 162.796 248.551C158.974 249.393 154.618 249.174 154.618 249.174L150.662 244.637L146.001 244.559L146.383 249.19H144.932V243.184H159.45Z" fill="black"/>
<path d="M138.815 136.659C138.815 136.659 129.263 147.318 134.993 159.359C134.993 159.359 135.304 161.507 135.07 161.891C134.837 162.275 135.987 167.258 135.987 167.258C135.987 167.258 136.143 176.302 135.987 177.842C135.832 179.383 135.676 180.218 135.676 180.218C135.676 180.218 133.542 196.924 134.228 201.914C134.915 206.903 135.223 215.794 135.223 215.794L138.05 239.723L152.724 236.963L146.074 204.137L145.844 198.309C145.844 198.309 148.597 191.177 147.373 187.572C146.148 183.967 147.684 138.028 147.684 138.028L138.815 136.659Z" fill="#303D5C"/>
<path opacity="0.05" d="M138.815 136.659C138.815 136.659 129.263 147.318 134.993 159.359C134.993 159.359 135.304 161.507 135.07 161.891C134.837 162.275 135.987 167.258 135.987 167.258C135.987 167.258 136.143 176.302 135.987 177.842C135.832 179.383 135.676 180.218 135.676 180.218C135.676 180.218 133.542 196.924 134.228 201.914C134.915 206.903 135.223 215.794 135.223 215.794L138.05 239.723L152.724 236.963L146.074 204.137L145.844 198.309C145.844 198.309 148.597 191.177 147.373 187.572C146.148 183.967 147.684 138.028 147.684 138.028L138.815 136.659Z" fill="black"/>
<path d="M145.844 188.192C147.525 191.414 146.465 199.235 146.465 199.235C144.25 201.153 145.471 217.871 145.471 217.871C145.471 217.871 143.942 234.362 142.951 236.27C141.959 238.179 142.109 246.087 142.109 246.087C153.342 248.158 160.679 243.711 160.679 243.711C160.679 243.711 157.086 235.503 157.012 235.123C156.968 234.907 156.493 235.491 156.35 235.659C156.425 235.556 156.62 235.288 157.012 234.723C158.541 232.575 157.012 228.433 157.012 228.433C157.012 228.433 158.923 215.089 158.006 213.861C157.09 212.632 158.158 208.11 158.693 207.037C159.227 205.965 159.914 203.432 159.914 202.36C159.959 201.526 160.113 200.702 160.374 199.909C162.742 196.531 162.285 190.933 162.285 190.933C162.285 190.933 162.133 182.881 163.506 176.517C164.88 170.152 161.791 152.127 161.791 152.127C161.791 152.127 162.82 148.6 162.055 147.296C161.71 146.71 161.744 145.328 161.906 143.991C162.092 142.353 162.437 140.779 162.437 140.779L141.59 137.064C141.151 137.797 140.751 138.508 140.381 139.191C133.485 151.977 138.134 156.73 138.134 156.73L142.559 170.417C142.559 170.417 144.156 184.974 145.844 188.192Z" fill="#303D5C"/>
<path d="M178.936 88.1097L181.916 90.6482C181.916 90.6482 182.5 90.1804 183.283 89.4787C185.147 87.7885 188.168 84.7292 187.037 83.4319C185.483 81.6606 183.929 82.8082 183.833 82.8893C184.001 82.7116 187.459 78.9912 186.042 79.2906C184.625 79.5899 181.916 82.8207 181.916 82.8207L179.775 86.6159L178.936 88.1097Z" fill="#EFB7B9"/>
<path d="M138.968 129.527L142.482 130.6L139.81 135.278L136.752 131.289L138.968 129.527Z" fill="#EFB7B9"/>
<path d="M147.221 85.581C152.751 85.581 157.233 81.0824 157.233 75.5332C157.233 69.9839 152.751 65.4854 147.221 65.4854C141.692 65.4854 137.209 69.9839 137.209 75.5332C137.209 81.0824 141.692 85.581 147.221 85.581Z" fill="#EFB7B9"/>
<path d="M153.107 79.2166C153.107 79.2166 144.011 93.702 152.647 94.9494C161.283 96.1968 141.031 104.997 141.031 104.997L133.465 97.3289C133.465 97.3289 141.336 83.676 140.115 78.4619C138.894 73.2478 153.107 79.2166 153.107 79.2166Z" fill="#EFB7B9"/>
<path opacity="0.1" d="M140.371 139.214C142.391 139.828 144.45 140.306 146.533 140.645C146.533 140.645 157.794 145.663 161.896 144.013C162.083 142.376 162.428 140.801 162.428 140.801L141.58 137.087C141.142 137.82 140.738 138.531 140.371 139.214Z" fill="black"/>
<path d="M130.027 101.302L132.062 105.527L134.361 110.286L134.672 110.966L137.397 116.891L140.862 124.4C140.862 124.4 139.638 125.857 140.02 127.007C140.377 128.083 140.937 127.616 141.008 127.55C140.943 127.64 140.203 128.638 140.862 129.078C141.521 129.518 141.319 130.534 141.319 130.534C141.319 130.534 138.491 135.212 137.957 136.899C137.422 138.586 146.518 140.046 146.518 140.046C146.518 140.046 159.432 145.796 162.642 142.959C165.852 140.121 162.642 126.777 162.642 126.777C162.642 126.777 162.642 119.108 161.8 118.419C160.958 117.73 161.359 112.413 161.359 112.413C163.574 108.359 162.046 106.048 162.046 106.048L162.667 95.6196C162.667 95.6196 161.673 94.5438 160.908 94.4689C160.426 94.4227 159.94 94.4227 159.457 94.4689C159.457 94.4689 159.053 94.3317 158.472 94.1571C157.248 93.8078 155.215 93.3244 154.488 93.6893C153.419 94.2257 146.543 92.8442 146.543 92.8442C143.579 92.4039 140.593 92.1228 137.599 92.0022C136.577 91.9354 135.551 92.0472 134.567 92.3327C132.081 93.103 131.639 94.9149 131.639 94.9149C131.639 94.9149 131.95 96.4492 130.723 98.4419C129.495 100.435 130.027 101.302 130.027 101.302Z" fill="#6C63FF"/>
<path opacity="0.1" d="M178.936 88.1109L181.916 90.6494C181.916 90.6494 182.5 90.1816 183.283 89.4799C183.519 86.8915 181.322 86.5485 179.775 86.6171L178.936 88.1109Z" fill="black"/>
<path d="M161.359 95.5511L162.658 95.6291C162.658 95.6291 165.712 96.0095 166.697 95.0896C167.682 94.1696 171.206 93.864 171.206 93.864C171.206 93.864 172.201 91.8682 173.269 91.2569C174.338 90.6457 176.939 89.4919 176.998 88.8775C177.057 88.2632 177.993 87.1156 177.993 87.1156C177.993 87.1156 183.723 85.7341 182.884 90.259C182.045 94.784 177.405 98.6914 177.405 98.6914C177.405 98.6914 176.871 101.224 175.112 101.838C173.353 102.452 161.968 107.819 160.134 106.438C158.301 105.056 161.359 95.5511 161.359 95.5511Z" fill="#6C63FF"/>
<path opacity="0.1" d="M130.712 98.4384C131.933 96.4457 131.629 94.9114 131.629 94.9114C131.629 94.9114 132.07 93.0995 134.556 92.3293C135.041 92.1817 135.54 92.0835 136.044 92.0361C133.596 92.8158 133.157 94.6058 133.157 94.6058C133.157 94.6058 133.468 96.1401 132.241 98.1328C131.013 100.126 131.551 100.971 131.551 100.971L133.589 105.196L135.886 109.952L136.215 110.635L138.94 116.544L142.405 124.054C142.405 124.054 141.181 125.513 141.563 126.664C141.92 127.74 142.48 127.269 142.551 127.207C142.486 127.294 141.746 128.295 142.405 128.735C143.064 129.174 142.862 130.191 142.862 130.191C142.862 130.191 140.034 134.869 139.5 136.556C138.965 138.243 148.061 139.699 148.061 139.699C148.061 139.699 157.029 143.694 161.876 143.382C157.756 145.004 146.532 140.008 146.532 140.008C146.532 140.008 137.436 138.549 137.971 136.862C138.505 135.174 141.333 130.5 141.333 130.5C141.333 130.5 141.563 129.502 140.876 129.043C140.19 128.585 140.957 127.606 141.022 127.515C140.951 127.581 140.401 128.049 140.034 126.973C139.652 125.822 140.876 124.366 140.876 124.366L137.411 116.853L134.686 110.928L134.376 110.248L132.076 105.489L130.041 101.264C130.041 101.264 129.488 100.434 130.712 98.4384Z" fill="black"/>
<path d="M131.417 100.151L130.044 101.302C129.795 102.059 129.406 102.761 128.897 103.373C128.133 104.218 126.069 112.576 126.069 112.576C126.156 112.769 126.201 112.978 126.201 113.19C126.201 113.402 126.156 113.611 126.069 113.804C125.759 114.428 126.691 115.339 126.691 115.339C126.691 115.339 127.148 115.186 126.38 116.028C125.612 116.87 127.07 117.874 127.07 117.874C127.07 117.874 133.334 128.605 134.633 129.755C135.932 130.906 137.231 133.897 137.231 133.897C137.231 133.897 139.953 129.612 140.593 129.531L137.921 123.475C137.921 123.475 136.085 115.036 134.711 113.495C133.338 111.955 135.398 106.666 135.398 106.666L131.417 100.151Z" fill="#6C63FF"/>
<path opacity="0.1" d="M130.522 115.796C131.672 117.181 133.689 117.474 135.472 117.271C135.733 117.24 135.997 117.2 136.255 117.15C136.646 117.08 137.033 116.989 137.414 116.879C138.78 116.484 140.065 115.85 141.212 115.007C141.462 114.791 141.751 114.623 142.063 114.515C142.778 114.334 143.486 114.867 143.875 115.491C144.263 116.114 144.447 116.85 144.844 117.468C145.627 118.693 147.144 119.283 148.598 119.317C150.052 119.351 151.463 118.915 152.849 118.481C151.727 117.097 150.577 115.656 150.121 113.932C149.867 112.807 149.794 111.649 149.906 110.501C150.236 105.075 152.113 99.3556 156.522 96.1935C157.286 95.6477 158.209 95.0022 158.464 94.1727C157.24 93.8234 155.208 93.34 154.48 93.7049C153.411 94.2413 146.535 92.8598 146.535 92.8598C143.571 92.4195 140.585 92.1384 137.591 92.0178C136.569 91.951 135.543 92.0628 134.559 92.3484C134.935 94.6529 135.261 96.945 134.81 99.2091C134.498 100.62 133.988 101.98 133.297 103.248C132.905 104.012 132.483 104.763 132.054 105.518C130.892 107.617 129.782 109.722 129.568 112.067C129.478 113.392 129.689 114.792 130.522 115.796Z" fill="black"/>
<path opacity="0.1" d="M145.633 126.586C145.036 126.508 144.434 126.305 143.843 126.43C143.341 126.58 142.882 126.849 142.504 127.213L146.432 127.235C147.442 127.235 148.964 127.297 149.738 126.58C149.03 125.875 146.643 126.717 145.633 126.586Z" fill="black"/>
<path d="M159.246 74.3671C159.842 75.191 160.218 76.1546 160.337 77.1658C160.456 78.1769 160.315 79.2018 159.927 80.1426C159.305 81.6239 158.084 82.7839 157.341 84.2122C156.779 85.3204 156.507 86.5538 156.551 87.7964C156.594 89.0391 156.952 90.2503 157.59 91.3162C157.88 91.6955 158.091 92.1292 158.211 92.5916C158.388 93.7611 157.183 94.6 156.223 95.2891C151.81 98.4451 149.936 104.168 149.607 109.597C149.494 110.744 149.565 111.902 149.818 113.027C150.275 114.752 151.428 116.192 152.55 117.577C151.164 118.011 149.753 118.447 148.296 118.413C146.838 118.379 145.328 117.789 144.542 116.564C144.144 115.94 143.958 115.21 143.572 114.586C143.187 113.963 142.475 113.433 141.767 113.61C141.453 113.716 141.162 113.882 140.912 114.1C139.226 115.341 137.247 116.123 135.17 116.367C133.386 116.573 131.369 116.277 130.223 114.892C129.39 113.885 129.175 112.488 129.29 111.184C129.688 106.541 133.607 102.889 134.514 98.3172C135.247 94.6124 133.917 90.8328 133.675 87.0719C133.311 81.4991 135.328 76.076 137.314 70.8557C137.746 69.5621 138.33 68.3247 139.054 67.1696C140.716 64.7247 143.591 63.259 146.512 62.9659C147.595 62.815 148.699 62.9218 149.734 63.2777C150.778 63.6831 151.648 64.4378 152.497 65.1769C154.392 66.8266 156.341 68.5449 157.431 70.8151C157.876 71.7507 158.168 72.7392 158.674 73.6405L159.246 74.3671Z" fill="#3F3D56"/>
<g opacity="0.1">
<path opacity="0.1" d="M157.444 72.3309C156.947 71.4297 156.658 70.4317 156.201 69.5055C155.777 68.6418 155.244 67.8359 154.617 67.1074C155.756 68.1712 156.702 69.4259 157.413 70.8153C157.845 71.7134 158.134 72.6864 158.603 73.5627L158.001 73.0513C158.158 73.2614 158.3 73.4835 158.423 73.7155C158.041 73.2964 157.712 72.8313 157.444 72.3309Z" fill="black"/>
<path opacity="0.1" d="M133.94 115.038C136.017 114.797 137.996 114.017 139.682 112.774C139.933 112.558 140.223 112.392 140.537 112.285C141.248 112.104 141.957 112.637 142.345 113.261C142.426 113.392 142.498 113.532 142.566 113.673C142.314 113.557 142.031 113.53 141.761 113.595C141.447 113.7 141.157 113.866 140.907 114.084C139.22 115.326 137.241 116.107 135.164 116.351C133.38 116.557 131.364 116.261 130.217 114.876C130.074 114.698 129.947 114.507 129.838 114.306C130.994 115.051 132.538 115.201 133.94 115.038Z" fill="black"/>
<path opacity="0.1" d="M147.069 117.09C148.52 117.125 149.934 116.688 151.32 116.255C150.198 114.87 149.049 113.429 148.592 111.705C148.338 110.58 148.265 109.422 148.377 108.274C148.707 102.845 150.584 97.1227 154.996 93.9668C155.956 93.2776 157.171 92.4387 156.985 91.2662C156.863 90.8054 156.651 90.3731 156.364 89.9938C155.725 88.9282 155.367 87.7171 155.323 86.4745C155.279 85.2318 155.55 83.9983 156.112 82.8898C156.858 81.4616 158.07 80.3015 158.7 78.8171C159.036 77.9993 159.187 77.1169 159.142 76.2336C159.097 75.3502 158.857 74.4879 158.439 73.709C158.65 73.9311 158.874 74.1394 159.11 74.3327C159.28 74.5709 159.465 74.798 159.664 75.0125C160.081 75.7921 160.321 76.655 160.366 77.539C160.41 78.423 160.259 79.3058 159.922 80.1237C159.3 81.605 158.079 82.7651 157.336 84.1934C156.774 85.3016 156.502 86.5349 156.546 87.7776C156.589 89.0203 156.947 90.2315 157.585 91.2973C157.875 91.6767 158.086 92.1103 158.206 92.5728C158.383 93.7422 157.178 94.5811 156.217 95.2703C151.805 98.4262 149.931 104.149 149.602 109.578C149.489 110.725 149.56 111.884 149.813 113.008C150.27 114.733 151.423 116.174 152.545 117.558C151.159 117.992 149.748 118.428 148.29 118.394C146.833 118.36 145.323 117.77 144.537 116.545C144.484 116.464 144.437 116.379 144.391 116.295C145.195 116.8 146.121 117.075 147.069 117.09Z" fill="black"/>
</g>
<path opacity="0.2" d="M101.078 46.167V52.7159H72.7441C73.608 51.5142 74.4905 50.3292 75.3917 49.1608C75.516 48.9986 75.6403 48.8489 75.7708 48.6774L77.0977 47.0027L77.281 46.7751L77.7626 46.1857L101.078 46.167Z" fill="#6C63FF"/>
<path opacity="0.2" d="M159.704 46.167H129.932V52.7096H159.704V46.167Z" fill="#6C63FF"/>
<path opacity="0.2" d="M228.083 46.167H198.311V52.7096H228.083V46.167Z" fill="#6C63FF"/>
<path opacity="0.2" d="M285.915 46.167H256.143V52.7096H285.915V46.167Z" fill="#6C63FF"/>
</g>
<defs>
<linearGradient id="paint0_linear" x1="68.781" y1="81.3091" x2="68.781" y2="67.3818" gradientUnits="userSpaceOnUse">
<stop stop-color="#808080" stop-opacity="0.25"/>
<stop offset="0.54" stop-color="#808080" stop-opacity="0.12"/>
<stop offset="1" stop-color="#808080" stop-opacity="0.1"/>
</linearGradient>
<linearGradient id="paint1_linear" x1="5970.31" y1="3504.97" x2="5970.31" y2="2882.84" gradientUnits="userSpaceOnUse">
<stop stop-color="#808080" stop-opacity="0.25"/>
<stop offset="0.54" stop-color="#808080" stop-opacity="0.12"/>
<stop offset="1" stop-color="#808080" stop-opacity="0.1"/>
</linearGradient>
<linearGradient id="paint2_linear" x1="9021.7" y1="4739.64" x2="9021.7" y2="4117.51" gradientUnits="userSpaceOnUse">
<stop stop-color="#808080" stop-opacity="0.25"/>
<stop offset="0.54" stop-color="#808080" stop-opacity="0.12"/>
<stop offset="1" stop-color="#808080" stop-opacity="0.1"/>
</linearGradient>
<linearGradient id="paint3_linear" x1="12135.1" y1="5160.7" x2="12135.1" y2="4538.71" gradientUnits="userSpaceOnUse">
<stop stop-color="#808080" stop-opacity="0.25"/>
<stop offset="0.54" stop-color="#808080" stop-opacity="0.12"/>
<stop offset="1" stop-color="#808080" stop-opacity="0.1"/>
</linearGradient>
<linearGradient id="paint4_linear" x1="12969.5" y1="5572.36" x2="12969.5" y2="4950.36" gradientUnits="userSpaceOnUse">
<stop stop-color="#808080" stop-opacity="0.25"/>
<stop offset="0.54" stop-color="#808080" stop-opacity="0.12"/>
<stop offset="1" stop-color="#808080" stop-opacity="0.1"/>
</linearGradient>
<linearGradient id="paint5_linear" x1="14015.6" y1="4472.52" x2="14015.6" y2="3850.39" gradientUnits="userSpaceOnUse">
<stop stop-color="#808080" stop-opacity="0.25"/>
<stop offset="0.54" stop-color="#808080" stop-opacity="0.12"/>
<stop offset="1" stop-color="#808080" stop-opacity="0.1"/>
</linearGradient>
<linearGradient id="paint6_linear" x1="13803.8" y1="5364.61" x2="13803.8" y2="4742.62" gradientUnits="userSpaceOnUse">
<stop stop-color="#808080" stop-opacity="0.25"/>
<stop offset="0.54" stop-color="#808080" stop-opacity="0.12"/>
<stop offset="1" stop-color="#808080" stop-opacity="0.1"/>
</linearGradient>
<linearGradient id="paint7_linear" x1="6891.95" y1="3504.97" x2="6891.95" y2="2882.84" gradientUnits="userSpaceOnUse">
<stop stop-color="#808080" stop-opacity="0.25"/>
<stop offset="0.54" stop-color="#808080" stop-opacity="0.12"/>
<stop offset="1" stop-color="#808080" stop-opacity="0.1"/>
</linearGradient>
<linearGradient id="paint8_linear" x1="3735.16" y1="5046.64" x2="3735.16" y2="4424.51" gradientUnits="userSpaceOnUse">
<stop stop-color="#808080" stop-opacity="0.25"/>
<stop offset="0.54" stop-color="#808080" stop-opacity="0.12"/>
<stop offset="1" stop-color="#808080" stop-opacity="0.1"/>
</linearGradient>
<linearGradient id="paint9_linear" x1="6457.87" y1="4421.55" x2="6457.87" y2="3799.56" gradientUnits="userSpaceOnUse">
<stop stop-color="#808080" stop-opacity="0.25"/>
<stop offset="0.54" stop-color="#808080" stop-opacity="0.12"/>
<stop offset="1" stop-color="#808080" stop-opacity="0.1"/>
</linearGradient>
<linearGradient id="paint10_linear" x1="9979.02" y1="4041.5" x2="9979.02" y2="3419.51" gradientUnits="userSpaceOnUse">
<stop stop-color="#808080" stop-opacity="0.25"/>
<stop offset="0.54" stop-color="#808080" stop-opacity="0.12"/>
<stop offset="1" stop-color="#808080" stop-opacity="0.1"/>
</linearGradient>
<linearGradient id="paint11_linear" x1="13543.7" y1="3595.54" x2="13543.7" y2="2973.55" gradientUnits="userSpaceOnUse">
<stop stop-color="#808080" stop-opacity="0.25"/>
<stop offset="0.54" stop-color="#808080" stop-opacity="0.12"/>
<stop offset="1" stop-color="#808080" stop-opacity="0.1"/>
</linearGradient>
<linearGradient id="paint12_linear" x1="10870.4" y1="3504.97" x2="10870.4" y2="2882.84" gradientUnits="userSpaceOnUse">
<stop stop-color="#808080" stop-opacity="0.25"/>
<stop offset="0.54" stop-color="#808080" stop-opacity="0.12"/>
<stop offset="1" stop-color="#808080" stop-opacity="0.1"/>
</linearGradient>
<linearGradient id="paint13_linear" x1="10832.1" y1="4739.64" x2="10832.1" y2="4117.51" gradientUnits="userSpaceOnUse">
<stop stop-color="#808080" stop-opacity="0.25"/>
<stop offset="0.54" stop-color="#808080" stop-opacity="0.12"/>
<stop offset="1" stop-color="#808080" stop-opacity="0.1"/>
</linearGradient>
<linearGradient id="paint14_linear" x1="7799.07" y1="3811.97" x2="7799.07" y2="3189.98" gradientUnits="userSpaceOnUse">
<stop stop-color="#808080" stop-opacity="0.25"/>
<stop offset="0.54" stop-color="#808080" stop-opacity="0.12"/>
<stop offset="1" stop-color="#808080" stop-opacity="0.1"/>
</linearGradient>
<linearGradient id="paint15_linear" x1="4209.52" y1="4016.59" x2="4209.52" y2="3394.6" gradientUnits="userSpaceOnUse">
<stop stop-color="#808080" stop-opacity="0.25"/>
<stop offset="0.54" stop-color="#808080" stop-opacity="0.12"/>
<stop offset="1" stop-color="#808080" stop-opacity="0.1"/>
</linearGradient>
<linearGradient id="paint16_linear" x1="4547.25" y1="4739.64" x2="4547.25" y2="4117.51" gradientUnits="userSpaceOnUse">
<stop stop-color="#808080" stop-opacity="0.25"/>
<stop offset="0.54" stop-color="#808080" stop-opacity="0.12"/>
<stop offset="1" stop-color="#808080" stop-opacity="0.1"/>
</linearGradient>
<linearGradient id="paint17_linear" x1="7349.49" y1="4842.74" x2="7349.49" y2="4220.75" gradientUnits="userSpaceOnUse">
<stop stop-color="#808080" stop-opacity="0.25"/>
<stop offset="0.54" stop-color="#808080" stop-opacity="0.12"/>
<stop offset="1" stop-color="#808080" stop-opacity="0.1"/>
</linearGradient>
<linearGradient id="paint18_linear" x1="12293.9" y1="3595.54" x2="12293.9" y2="2973.55" gradientUnits="userSpaceOnUse">
<stop stop-color="#808080" stop-opacity="0.25"/>
<stop offset="0.54" stop-color="#808080" stop-opacity="0.12"/>
<stop offset="1" stop-color="#808080" stop-opacity="0.1"/>
</linearGradient>
<linearGradient id="paint19_linear" x1="12891.8" y1="4472.52" x2="12891.8" y2="3850.39" gradientUnits="userSpaceOnUse">
<stop stop-color="#808080" stop-opacity="0.25"/>
<stop offset="0.54" stop-color="#808080" stop-opacity="0.12"/>
<stop offset="1" stop-color="#808080" stop-opacity="0.1"/>
</linearGradient>
<linearGradient id="paint20_linear" x1="9080.67" y1="3504.97" x2="9080.67" y2="2882.84" gradientUnits="userSpaceOnUse">
<stop stop-color="#808080" stop-opacity="0.25"/>
<stop offset="0.54" stop-color="#808080" stop-opacity="0.12"/>
<stop offset="1" stop-color="#808080" stop-opacity="0.1"/>
</linearGradient>
<linearGradient id="paint21_linear" x1="9902.58" y1="5364.61" x2="9902.58" y2="4742.62" gradientUnits="userSpaceOnUse">
<stop stop-color="#808080" stop-opacity="0.25"/>
<stop offset="0.54" stop-color="#808080" stop-opacity="0.12"/>
<stop offset="1" stop-color="#808080" stop-opacity="0.1"/>
</linearGradient>
<linearGradient id="paint22_linear" x1="-30191.1" y1="155686" x2="-30191.1" y2="42869.7" gradientUnits="userSpaceOnUse">
<stop stop-color="#808080" stop-opacity="0.25"/>
<stop offset="0.54" stop-color="#808080" stop-opacity="0.12"/>
<stop offset="1" stop-color="#808080" stop-opacity="0.1"/>
</linearGradient>
<linearGradient id="paint23_linear" x1="-30191.1" y1="155686" x2="-30191.1" y2="42869.7" gradientUnits="userSpaceOnUse">
<stop stop-color="#808080" stop-opacity="0.25"/>
<stop offset="0.54" stop-color="#808080" stop-opacity="0.12"/>
<stop offset="1" stop-color="#808080" stop-opacity="0.1"/>
</linearGradient>
<clipPath id="clip0">
<rect width="366" height="261" fill="white"/>
</clipPath>
</defs>
</svg>
