<svg width="366" height="280" viewBox="0 0 366 280" fill="none" xmlns="http://www.w3.org/2000/svg">
<g clip-path="url(#clip0)">
<path d="M342.936 158.504C329.45 178.667 332.863 206.692 339.654 228.89C341.94 236.321 344.523 244.174 342.988 252.387C341.11 262.431 333.454 270.167 325.606 274.498C311.304 282.396 294.702 281.747 282.386 272.813C271.742 265.09 264.508 251.913 253.645 244.57C235.488 232.325 211.244 238.876 190.309 249.4C175.497 256.838 159.235 266.323 145.198 260.373C135.321 256.185 128.92 244.908 125.738 232.731C124.203 226.852 123.197 220.447 119.925 215.912C117.965 213.217 115.352 211.367 112.645 209.864C87.9172 195.989 55.2923 206.244 31.3683 190.642C15.2241 180.124 5.61855 158.978 2.0324 136.53C-1.55375 114.082 0.213194 90.2051 2.6105 66.7084C4.31212 50.0126 6.75188 32.1515 16.1223 18.767C26.0348 4.60985 42.1137 -1.41853 56.295 0.279287C70.4763 1.9771 82.9462 10.385 93.7994 20.5362C107.363 33.1968 119.722 49.253 136.944 53.6485C148.673 56.6513 161.313 53.8335 173.639 52.35C194.248 49.899 214.67 51.2625 234.956 52.8824C254.379 54.4341 273.927 56.2553 292.168 62.8712C305.076 67.5524 315.142 76.8758 327.242 83.0762C335.13 87.1179 343.916 87.8256 351.307 93.1397C360.413 99.6811 368.46 111.543 365.296 126.2C362.287 140.156 350.092 147.791 342.936 158.504Z" fill="#222137"/>
<path opacity="0.1" d="M301.031 83.2422H287.676V103.337H301.031V83.2422Z" fill="#6C63FF"/>
<path opacity="0.1" d="M299.731 85.1963H288.973V101.382H299.731V85.1963Z" fill="#6C63FF"/>
<path opacity="0.1" d="M281.077 69.2822H260.566V89.3768H281.077V69.2822Z" fill="#6C63FF"/>
<path opacity="0.1" d="M279.084 71.2363H262.561V87.4224H279.084V71.2363Z" fill="#6C63FF"/>
<path opacity="0.1" d="M83.7979 39.3838H21.1055V41.0427H83.7979V39.3838Z" fill="#6C63FF"/>
<path opacity="0.1" d="M83.7979 47.4961H21.1055V49.155H83.7979V47.4961Z" fill="#6C63FF"/>
<path d="M133.27 146.938H126.865V218.077H133.27V146.938Z" fill="#D6D6E3"/>
<path d="M320.35 154.408V88.7867C320.35 86.9577 321.082 85.2039 322.383 83.911C323.685 82.618 325.45 81.8916 327.29 81.8916C329.128 81.895 330.889 82.6229 332.188 83.9155C333.487 85.2082 334.216 86.96 334.217 88.7867V168.204C334.217 170.034 333.486 171.788 332.184 173.082C330.883 174.376 329.118 175.103 327.277 175.103H284.292C282.451 175.103 280.686 174.376 279.384 173.082C278.083 171.788 277.352 170.034 277.352 168.204C277.352 166.375 278.083 164.62 279.384 163.326C280.686 162.033 282.451 161.306 284.292 161.306H313.409C315.25 161.306 317.015 160.579 318.317 159.285C319.618 157.992 320.35 156.237 320.35 154.408Z" fill="#AEBEE1"/>
<path d="M320.35 154.408V88.7867C320.35 86.9577 321.082 85.2039 322.383 83.911C323.685 82.618 325.45 81.8916 327.29 81.8916C329.128 81.895 330.889 82.6229 332.188 83.9155C333.487 85.2082 334.216 86.96 334.217 88.7867V168.204C334.217 170.034 333.486 171.788 332.184 173.082C330.883 174.376 329.118 175.103 327.277 175.103H284.292C282.451 175.103 280.686 174.376 279.384 173.082C278.083 171.788 277.352 170.034 277.352 168.204C277.352 166.375 278.083 164.62 279.384 163.326C280.686 162.033 282.451 161.306 284.292 161.306H313.409C315.25 161.306 317.015 160.579 318.317 159.285C319.618 157.992 320.35 156.237 320.35 154.408Z" fill="#535461"/>
<path d="M277.361 167.834C277.457 166.071 278.228 164.412 279.518 163.197C280.807 161.983 282.516 161.306 284.292 161.306H313.409C315.25 161.306 317.015 160.579 318.317 159.285C319.618 157.992 320.349 156.237 320.349 154.408V88.7867C320.348 87.0137 321.034 85.3082 322.264 84.0244C323.494 82.7405 325.175 81.9767 326.957 81.8916V167.834H277.361Z" fill="#D6D6E3"/>
<path d="M62.8723 156.621V91C62.8723 89.1732 62.1434 87.421 60.8453 86.1278C59.5473 84.8346 57.7861 84.1059 55.9482 84.1016C54.1075 84.1016 52.3422 84.8284 51.0406 86.1221C49.7391 87.4157 49.0078 89.1704 49.0078 91V170.417C49.0057 171.325 49.1836 172.224 49.5314 173.062C49.8793 173.901 50.3902 174.664 51.0348 175.306C51.6795 175.948 52.4454 176.458 53.2885 176.805C54.1316 177.153 55.0354 177.332 55.9482 177.332H98.9298C100.771 177.332 102.536 176.605 103.837 175.312C105.139 174.018 105.87 172.263 105.87 170.434C105.87 168.604 105.139 166.85 103.837 165.556C102.536 164.262 100.771 163.535 98.9298 163.535H69.816C68.9029 163.536 67.9987 163.357 67.1553 163.01C66.3118 162.662 65.5455 162.153 64.9005 161.51C64.2555 160.868 63.7443 160.105 63.3963 159.266C63.0482 158.427 62.8702 157.528 62.8723 156.621Z" fill="#AEBEE1"/>
<path d="M62.8723 156.621V91C62.8723 89.1732 62.1434 87.421 60.8453 86.1278C59.5473 84.8346 57.7861 84.1059 55.9482 84.1016C54.1075 84.1016 52.3422 84.8284 51.0406 86.1221C49.7391 87.4157 49.0078 89.1704 49.0078 91V170.417C49.0057 171.325 49.1836 172.224 49.5314 173.062C49.8793 173.901 50.3902 174.664 51.0348 175.306C51.6795 175.948 52.4454 176.458 53.2885 176.805C54.1316 177.153 55.0354 177.332 55.9482 177.332H98.9298C100.771 177.332 102.536 176.605 103.837 175.312C105.139 174.018 105.87 172.263 105.87 170.434C105.87 168.604 105.139 166.85 103.837 165.556C102.536 164.262 100.771 163.535 98.9298 163.535H69.816C68.9029 163.536 67.9987 163.357 67.1553 163.01C66.3118 162.662 65.5455 162.153 64.9005 161.51C64.2555 160.868 63.7443 160.105 63.3963 159.266C63.0482 158.427 62.8702 157.528 62.8723 156.621Z" fill="#535461"/>
<path d="M105.859 170.047C105.764 168.284 104.992 166.625 103.703 165.41C102.413 164.196 100.705 163.519 98.9284 163.519H69.8146C68.9029 163.52 68 163.341 67.1576 162.995C66.3152 162.648 65.5497 162.14 64.9049 161.5C64.26 160.859 63.7485 160.099 63.3995 159.261C63.0505 158.424 62.8709 157.527 62.8709 156.621V91C62.8706 89.2297 62.1855 87.5272 60.9574 86.245C59.7294 84.9627 58.0524 84.1988 56.2734 84.1113V170.047H105.859Z" fill="#D6D6E3"/>
<path d="M259.983 146.938H253.578V219.736H259.983V146.938Z" fill="#D6D6E3"/>
<path opacity="0.1" d="M133.27 146.938H126.865V152.197H133.27V146.938Z" fill="black"/>
<path opacity="0.1" d="M259.983 146.938H253.578V152.197H259.983V146.938Z" fill="black"/>
<path opacity="0.1" d="M149.741 103.615C149.638 104.736 149.509 105.872 149.352 107.024H148.447V103.615H149.741Z" fill="black"/>
<path d="M175.984 139.027C176.003 140.179 175.167 141.124 174.132 141.124H154.584V139.098H170.849C171.552 139.098 171.989 138.254 171.636 137.579L156.887 107.761C156.782 107.547 156.621 107.364 156.419 107.235C156.217 107.106 155.984 107.034 155.744 107.028H148.447V103.619H157.661C157.829 103.623 157.992 103.673 158.133 103.764C158.275 103.854 158.388 103.982 158.461 104.132L175.37 136.595C175.759 137.348 175.969 138.18 175.984 139.027Z" fill="#535461"/>
<path d="M140.082 133.617L139.814 134.065L137.309 132.403L145.059 73.168H147.055C147.055 73.168 147.136 73.4407 147.27 73.9601C148.606 79.0795 155.168 108.072 140.082 133.617Z" fill="#535461"/>
<path opacity="0.1" d="M147.267 73.9601L140.082 133.617L139.814 134.065L137.309 132.403L145.059 73.168H147.055C147.055 73.168 147.133 73.4504 147.267 73.9601Z" fill="black"/>
<path d="M142.395 72.5552L135.043 133.568L139.745 134.128L147.098 73.115L142.395 72.5552Z" fill="#D6D6E3"/>
<path d="M118.928 139.049C118.927 139.196 118.868 139.337 118.763 139.441C118.659 139.544 118.517 139.603 118.369 139.604H117.533C117.385 139.604 117.243 139.546 117.138 139.441C117.033 139.337 116.975 139.196 116.975 139.049C116.972 139.027 116.972 139.006 116.975 138.984C116.991 138.85 117.057 138.727 117.158 138.637C117.26 138.547 117.391 138.498 117.527 138.497H118.363C118.487 138.498 118.607 138.54 118.705 138.617C118.802 138.693 118.871 138.799 118.902 138.919C118.916 138.961 118.925 139.005 118.928 139.049Z" fill="#E3EDF9"/>
<path d="M121.432 139.049C121.431 139.196 121.372 139.337 121.267 139.441C121.163 139.544 121.021 139.603 120.873 139.604H120.037C119.889 139.604 119.747 139.546 119.642 139.442C119.537 139.337 119.479 139.196 119.479 139.049C119.479 138.997 119.487 138.946 119.501 138.896C119.526 138.806 119.575 138.725 119.642 138.659C119.693 138.608 119.754 138.567 119.821 138.539C119.889 138.511 119.961 138.497 120.034 138.497H120.87C120.978 138.497 121.083 138.527 121.174 138.584C121.265 138.642 121.338 138.724 121.383 138.822C121.415 138.893 121.431 138.971 121.432 139.049Z" fill="#E3EDF9"/>
<path d="M123.66 139.049C123.659 139.196 123.6 139.337 123.496 139.441C123.391 139.545 123.25 139.604 123.102 139.604H122.266C122.117 139.604 121.975 139.546 121.871 139.442C121.766 139.338 121.707 139.196 121.707 139.049C121.706 138.97 121.722 138.891 121.756 138.819C121.801 138.723 121.873 138.642 121.962 138.584C122.052 138.527 122.156 138.496 122.262 138.494H123.098C123.172 138.494 123.245 138.508 123.313 138.536C123.381 138.563 123.442 138.604 123.494 138.656C123.546 138.707 123.587 138.769 123.615 138.836C123.643 138.904 123.657 138.976 123.657 139.049H123.66Z" fill="#E3EDF9"/>
<path d="M126.168 139.049C126.167 139.196 126.108 139.337 126.003 139.441C125.898 139.544 125.757 139.603 125.609 139.604H124.773C124.671 139.604 124.571 139.576 124.483 139.523C124.396 139.471 124.325 139.395 124.278 139.305C124.231 139.215 124.209 139.114 124.216 139.013C124.223 138.912 124.257 138.814 124.316 138.731L124.381 138.659C124.432 138.608 124.493 138.567 124.56 138.539C124.628 138.511 124.7 138.497 124.773 138.497H125.609C125.685 138.498 125.76 138.514 125.83 138.545C125.9 138.576 125.962 138.62 126.014 138.676C126.112 138.775 126.167 138.909 126.168 139.049Z" fill="#E3EDF9"/>
<path opacity="0.1" d="M118.911 138.916C118.923 138.959 118.928 139.004 118.928 139.049C118.927 139.196 118.868 139.337 118.763 139.441C118.659 139.545 118.517 139.603 118.369 139.604H117.533C117.385 139.604 117.243 139.546 117.138 139.442C117.033 139.338 116.975 139.196 116.975 139.049C116.972 139.028 116.972 139.006 116.975 138.984L118.911 138.916Z" fill="black"/>
<path opacity="0.1" d="M121.386 138.828C121.415 138.897 121.431 138.971 121.432 139.046C121.431 139.193 121.372 139.333 121.267 139.437C121.163 139.541 121.021 139.6 120.873 139.601H120.037C119.889 139.601 119.747 139.542 119.642 139.438C119.537 139.334 119.479 139.193 119.479 139.046C119.479 138.994 119.487 138.943 119.501 138.893L121.386 138.828Z" fill="black"/>
<path opacity="0.1" d="M123.577 138.754C123.632 138.842 123.662 138.943 123.662 139.046C123.661 139.193 123.602 139.334 123.498 139.438C123.393 139.542 123.252 139.6 123.104 139.601H122.268C122.119 139.601 121.977 139.543 121.873 139.439C121.768 139.334 121.709 139.193 121.709 139.046C121.708 138.967 121.724 138.888 121.758 138.816L123.577 138.754Z" fill="black"/>
<path opacity="0.1" d="M126.168 139.048C126.167 139.195 126.108 139.336 126.003 139.44C125.898 139.544 125.757 139.603 125.609 139.604H124.773C124.671 139.603 124.571 139.576 124.483 139.523C124.396 139.47 124.325 139.395 124.278 139.305C124.231 139.215 124.209 139.114 124.216 139.012C124.223 138.911 124.257 138.813 124.316 138.73L126.014 138.672C126.113 138.772 126.168 138.908 126.168 139.048Z" fill="black"/>
<path d="M131.178 141.263H115.027V140.533C115.027 140.208 115.154 139.897 115.38 139.663C115.607 139.43 115.916 139.294 116.242 139.283L129.196 138.838C129.453 138.829 129.709 138.872 129.95 138.964C130.19 139.056 130.41 139.195 130.595 139.372C130.78 139.55 130.927 139.763 131.028 139.999C131.129 140.234 131.181 140.488 131.181 140.744L131.178 141.263Z" fill="#D6D6E3"/>
<path d="M210.86 139.027C210.84 140.179 211.676 141.124 212.712 141.124H232.269V139.098H215.984C215.282 139.098 214.844 138.254 215.197 137.579L229.947 107.761C230.051 107.547 230.213 107.364 230.415 107.235C230.616 107.106 230.85 107.034 231.09 107.028H238.389V103.619H229.182C229.017 103.625 228.857 103.676 228.718 103.766C228.579 103.856 228.468 103.981 228.395 104.129L211.487 136.592C211.092 137.345 210.878 138.178 210.86 139.027Z" fill="#535461"/>
<path d="M246.766 133.617L247.034 134.065L249.539 132.403L241.788 73.168H239.793C239.793 73.168 239.711 73.4407 239.577 73.9601C238.238 79.0795 231.664 108.072 246.766 133.617Z" fill="#535461"/>
<path opacity="0.1" d="M239.578 73.9601L246.763 133.617L247.031 134.065L249.536 132.403L241.789 73.168H239.794C239.794 73.168 239.712 73.4504 239.578 73.9601Z" fill="black"/>
<path d="M244.456 72.5496L239.754 73.1094L247.106 134.123L251.809 133.563L244.456 72.5496Z" fill="#D6D6E3"/>
<path d="M267.916 139.049C267.917 139.196 267.976 139.337 268.081 139.441C268.185 139.544 268.327 139.603 268.475 139.604H269.311C269.459 139.604 269.601 139.546 269.706 139.441C269.81 139.337 269.869 139.196 269.869 139.049C269.872 139.027 269.872 139.006 269.869 138.984C269.852 138.85 269.787 138.727 269.686 138.637C269.584 138.547 269.453 138.498 269.317 138.497H268.481C268.357 138.498 268.237 138.54 268.139 138.617C268.042 138.693 267.972 138.799 267.942 138.919C267.928 138.961 267.919 139.005 267.916 139.049Z" fill="#E3EDF9"/>
<path d="M265.411 139.049C265.412 139.196 265.471 139.337 265.576 139.441C265.68 139.544 265.822 139.603 265.97 139.604H266.806C266.879 139.604 266.952 139.59 267.02 139.562C267.087 139.534 267.149 139.493 267.201 139.442C267.253 139.39 267.294 139.329 267.322 139.261C267.35 139.194 267.364 139.122 267.364 139.049C267.364 138.997 267.356 138.946 267.342 138.896C267.317 138.806 267.268 138.725 267.201 138.659C267.15 138.608 267.089 138.567 267.022 138.539C266.954 138.511 266.882 138.497 266.809 138.497H265.957C265.849 138.497 265.743 138.527 265.652 138.584C265.561 138.642 265.489 138.724 265.444 138.822C265.418 138.894 265.407 138.972 265.411 139.049Z" fill="#E3EDF9"/>
<path d="M263.184 139.049C263.184 139.196 263.244 139.337 263.348 139.441C263.453 139.545 263.594 139.604 263.742 139.604H264.578C264.726 139.604 264.868 139.546 264.973 139.442C265.078 139.338 265.137 139.196 265.137 139.049C265.138 138.97 265.121 138.891 265.088 138.819C265.042 138.723 264.971 138.642 264.881 138.584C264.792 138.527 264.688 138.496 264.581 138.494H263.745C263.672 138.494 263.599 138.508 263.531 138.536C263.463 138.563 263.401 138.604 263.349 138.656C263.298 138.707 263.256 138.769 263.228 138.836C263.201 138.904 263.186 138.976 263.187 139.049H263.184Z" fill="#E3EDF9"/>
<path d="M260.676 139.049C260.677 139.196 260.736 139.337 260.84 139.441C260.945 139.544 261.086 139.603 261.234 139.604H262.07C262.173 139.604 262.273 139.576 262.36 139.523C262.447 139.471 262.518 139.395 262.565 139.305C262.613 139.215 262.634 139.114 262.627 139.013C262.621 138.912 262.586 138.814 262.528 138.731L262.462 138.659C262.411 138.608 262.35 138.567 262.283 138.539C262.216 138.511 262.143 138.497 262.07 138.497H261.234C261.158 138.498 261.083 138.514 261.013 138.545C260.944 138.576 260.881 138.62 260.829 138.676C260.731 138.775 260.676 138.909 260.676 139.049Z" fill="#E3EDF9"/>
<path opacity="0.1" d="M267.932 138.916C267.921 138.959 267.916 139.004 267.916 139.049C267.917 139.196 267.976 139.337 268.081 139.441C268.185 139.545 268.327 139.603 268.475 139.604H269.311C269.459 139.604 269.601 139.546 269.706 139.442C269.81 139.338 269.869 139.196 269.869 139.049C269.872 139.028 269.872 139.006 269.869 138.984L267.932 138.916Z" fill="black"/>
<path opacity="0.1" d="M265.456 138.828C265.426 138.897 265.411 138.971 265.41 139.046C265.411 139.193 265.47 139.333 265.575 139.437C265.679 139.541 265.821 139.6 265.969 139.601H266.805C266.878 139.601 266.951 139.586 267.019 139.558C267.086 139.531 267.148 139.49 267.2 139.438C267.252 139.387 267.293 139.325 267.321 139.258C267.349 139.191 267.363 139.119 267.363 139.046C267.363 138.994 267.355 138.943 267.34 138.893L265.456 138.828Z" fill="black"/>
<path opacity="0.1" d="M263.265 138.754C263.21 138.842 263.18 138.943 263.18 139.046C263.181 139.193 263.24 139.334 263.344 139.438C263.449 139.542 263.59 139.6 263.738 139.601H264.574C264.722 139.601 264.864 139.543 264.969 139.439C265.074 139.334 265.133 139.193 265.133 139.046C265.134 138.967 265.117 138.888 265.084 138.816L263.265 138.754Z" fill="black"/>
<path opacity="0.1" d="M260.676 139.048C260.677 139.195 260.736 139.336 260.84 139.44C260.945 139.544 261.086 139.603 261.234 139.604H262.07C262.173 139.603 262.273 139.576 262.36 139.523C262.447 139.47 262.518 139.395 262.565 139.305C262.613 139.215 262.634 139.114 262.627 139.012C262.621 138.911 262.586 138.813 262.528 138.73L260.829 138.672C260.73 138.772 260.675 138.908 260.676 139.048Z" fill="black"/>
<path d="M255.667 141.263H271.818V140.533C271.818 140.208 271.692 139.897 271.465 139.663C271.238 139.43 270.929 139.294 270.603 139.283L257.65 138.838C257.392 138.829 257.136 138.872 256.896 138.964C256.655 139.056 256.436 139.195 256.251 139.372C256.065 139.55 255.918 139.763 255.817 139.999C255.716 140.234 255.664 140.488 255.664 140.744L255.667 141.263Z" fill="#D6D6E3"/>
<path d="M323.268 150.063C330.803 137.361 328.072 111.738 328.376 111.247C328.647 110.816 327.609 98.7492 320.685 95.8015C319.434 93.3376 318.202 90.562 318.202 90.562C318.081 90.6751 317.948 90.7742 317.804 90.8574C317.749 90.7102 317.696 90.5609 317.644 90.4094C317.556 90.1529 317.474 89.89 317.392 89.627C317.586 89.6886 317.784 89.7384 317.984 89.7764C318.511 89.9045 319.067 89.8554 319.564 89.6368C319.734 89.5464 319.887 89.4291 320.018 89.2894C320.564 88.9291 320.864 88.2798 321.119 87.6663L323.134 82.8682C324.042 80.703 324.957 78.5247 325.44 76.2296C326.159 72.7757 325.881 69.19 324.637 65.8868C324.16 64.6273 323.5 63.3677 322.38 62.6146C320.136 61.1018 317.013 62.1471 314.45 61.2609C313.607 60.9687 312.846 60.4753 312.003 60.1766C310.184 59.5273 308.13 59.8747 306.379 60.683C304.629 61.4914 303.211 62.7769 301.679 63.9293C300.925 64.5039 299.72 65.098 298.831 65.8771C297.969 66.5458 297.306 67.3542 297.433 68.419C297.577 69.6363 298.867 70.3667 300.069 70.6524C300.268 70.6979 300.474 70.7336 300.677 70.7693C299.25 72.2057 298.222 73.9848 297.693 75.9334C297.164 77.882 297.151 79.9336 297.657 81.8884C298.162 83.8432 299.168 85.6346 300.577 87.088C301.986 88.5415 303.75 89.6075 305.697 90.1822C306.309 91.3261 306.84 92.5118 307.284 93.7304C307.343 93.897 307.4 94.0647 307.457 94.2335C305.478 94.7919 303.93 95.2561 303.619 95.5126C302.682 96.2852 304.645 103.05 304.645 103.05C304.145 103.68 303.636 104.398 303.12 105.167C299.206 111.075 296.728 117.807 295.882 124.83C295.555 127.398 295.131 130.024 294.592 132.52L271.184 127.855L271.135 128.43L270.576 128.294L268.819 127.862L268.751 128.255L268.483 128.128C264.129 126.099 256.794 123.509 251.826 126.18C246.584 128.985 257.898 132.712 265.158 134.695C262.751 134.812 260.448 135.387 258.626 136.731C253.361 140.652 268.251 142.694 275.283 143.418L275.567 143.447V143.597L278.004 143.821L278.575 143.873L278.631 144.736C278.631 144.736 282.119 145.304 286.779 145.993C281.459 147.314 274.884 148.229 270.318 148.765C265.478 149.33 261.356 152.68 260.056 157.351C259.636 158.691 259.596 160.12 259.939 161.481C261.298 166.198 259.638 200.897 259.263 208.37L250.657 213.295C250.657 213.295 237.266 214.918 246.185 218.038C246.989 218.311 247.811 218.527 248.645 218.687C247.469 219.44 247.57 220.424 251.036 221.631C259.962 224.741 280.711 221.495 280.711 221.495C280.711 221.495 280.257 217.84 279.519 214.801L279.748 214.821C279.748 214.821 277.605 206.896 280.855 202.9C284.105 198.904 280.309 168.489 280.309 168.489C280.309 168.489 285.999 166.149 303.005 165.996C316.723 169.496 323.408 156.968 323.314 150.492C323.284 150.346 323.278 150.197 323.268 150.063Z" fill="url(#paint0_linear)"/>
<path d="M272.571 130.378L271.117 136.222C271.117 136.222 269.811 135.93 267.851 135.43C261.214 133.722 247.216 129.622 252.827 126.613C257.664 124.016 264.788 126.541 269.017 128.512C270.565 129.236 271.728 129.885 272.247 130.19C272.466 130.313 272.571 130.378 272.571 130.378Z" fill="#F8B9BF"/>
<path opacity="0.1" d="M272.163 132.027L271.118 136.247C271.118 136.247 269.811 135.955 267.852 135.455L269.031 128.537C270.579 129.261 271.741 129.91 272.261 130.215L272.163 132.027Z" fill="black"/>
<path d="M272.166 136.647L268.109 135.65L269.37 128.262L272.613 129.057L272.166 136.647Z" fill="#D9DFE8"/>
<path opacity="0.1" d="M272.167 136.646L270.416 136.218L271.076 128.68L272.614 129.056L272.167 136.646Z" fill="black"/>
<path d="M311.306 106.044C311.306 106.044 303.516 101.571 300.054 114.403C296.592 127.236 296.265 133.147 296.265 133.147L271.665 128.258L270.885 137.189C270.885 137.189 297.187 145.629 300.495 145.016C303.804 144.402 314.539 126.512 314.539 126.512C314.539 126.512 324.298 112.647 311.306 106.044Z" fill="#6C63FF"/>
<g opacity="0.1">
<path opacity="0.1" d="M272.571 130.377L271.117 136.221C271.117 136.221 269.811 135.929 267.851 135.429C261.214 133.721 247.216 129.621 252.827 126.612C257.664 124.015 264.788 126.54 269.017 128.511C270.565 129.235 271.728 129.884 272.247 130.189C272.466 130.312 272.571 130.377 272.571 130.377Z" fill="black"/>
<path opacity="0.1" d="M272.161 132.027L271.116 136.247C271.116 136.247 269.809 135.955 267.85 135.455L269.029 128.537C270.577 129.261 271.74 129.91 272.259 130.215L272.161 132.027Z" fill="black"/>
<path opacity="0.1" d="M272.166 136.647L268.109 135.65L269.37 128.262L272.613 129.057L272.166 136.647Z" fill="black"/>
<path opacity="0.1" d="M272.165 136.646L270.414 136.218L271.074 128.68L272.612 129.056L272.165 136.646Z" fill="black"/>
<path opacity="0.1" d="M311.306 106.368C311.306 106.368 303.516 101.895 300.054 114.727C296.592 127.56 296.266 133.472 296.266 133.472L271.666 128.583L270.885 137.513C270.885 137.513 297.187 145.954 300.495 145.34C303.804 144.726 314.54 126.836 314.54 126.836C314.54 126.836 324.299 112.971 311.306 106.368Z" fill="black"/>
</g>
<path d="M261.76 205.478L251.717 211.227C251.717 211.227 238.705 212.811 247.373 215.83C256.041 218.849 276.193 215.697 276.193 215.697C276.193 215.697 275.072 206.698 273.511 205.442C271.95 204.186 261.76 205.478 261.76 205.478Z" fill="#68739D"/>
<path d="M300.903 140.974C300.903 140.974 295.906 143.571 287.029 145.814C281.826 147.112 275.313 148.034 270.813 148.56C268.509 148.81 266.331 149.733 264.557 151.215C262.782 152.696 261.49 154.668 260.845 156.881C260.434 158.186 260.394 159.579 260.73 160.906C262.21 166.045 260.002 207.818 260.002 207.818L275.255 209.221C275.255 209.221 273.174 201.524 276.332 197.644C279.491 193.765 275.803 164.237 275.803 164.237C275.803 164.237 281.329 161.964 297.843 161.815C313.141 165.711 319.445 149.067 317.083 144.402C314.722 139.737 300.903 140.974 300.903 140.974Z" fill="#6394E2"/>
<g opacity="0.1">
<path opacity="0.1" d="M261.76 205.478L251.717 211.227C251.717 211.227 238.705 212.811 247.373 215.83C256.041 218.849 276.193 215.697 276.193 215.697C276.193 215.697 275.072 206.698 273.511 205.442C271.95 204.186 261.76 205.478 261.76 205.478Z" fill="black"/>
<path opacity="0.1" d="M300.904 140.974C300.904 140.974 295.906 143.571 287.029 145.814C281.826 147.112 275.314 148.034 270.813 148.56C268.509 148.81 266.332 149.733 264.557 151.215C262.782 152.696 261.49 154.668 260.845 156.881C260.434 158.186 260.395 159.579 260.731 160.906C262.21 166.045 260.002 207.818 260.002 207.818L275.255 209.221C275.255 209.221 273.175 201.524 276.333 197.644C279.491 193.765 275.804 164.237 275.804 164.237C275.804 164.237 281.33 161.964 297.843 161.815C313.142 165.711 319.445 149.067 317.084 144.402C314.722 139.737 300.904 140.974 300.904 140.974Z" fill="black"/>
</g>
<path d="M266.47 208.968L256.427 214.717C256.427 214.717 243.421 216.288 252.083 219.32C260.744 222.352 280.903 219.187 280.903 219.187C280.903 219.187 279.782 210.188 278.221 208.932C276.66 207.676 266.47 208.968 266.47 208.968Z" fill="#68739D"/>
<path d="M302.538 165.305C286.025 165.454 280.499 167.727 280.499 167.727C280.499 167.727 284.186 197.268 281.028 201.134C277.869 205.001 279.95 212.711 279.95 212.711L264.697 211.308C264.697 211.308 264.723 210.815 264.766 209.932C265.132 202.673 266.742 168.977 265.419 164.396C265.085 163.073 265.125 161.685 265.533 160.384C266.175 158.168 267.466 156.193 269.24 154.708C271.014 153.223 273.193 152.295 275.498 152.044C279.996 151.521 286.508 150.612 291.711 149.297L291.966 149.232C300.686 147.006 305.585 144.457 305.585 144.457C305.585 144.457 319.404 143.224 321.765 147.889C322.098 148.628 322.263 149.432 322.249 150.242C322.366 156.537 315.867 168.704 302.538 165.305Z" fill="#6394E2"/>
<path d="M279.535 137.66L278.976 143.665C278.976 143.665 277.634 143.571 275.638 143.363C268.822 142.659 254.363 140.679 259.474 136.871C263.871 133.599 271.291 135.027 275.769 136.351C277.402 136.838 278.656 137.309 279.215 137.533C279.42 137.611 279.535 137.66 279.535 137.66Z" fill="#F8B9BF"/>
<path d="M320.1 98.3952C320.1 98.3952 318.056 99.9859 315.557 101.732C312.817 102.349 309.636 102.859 307.343 103.19C308.163 100.593 307.67 97.6712 306.745 95.1099C305.74 92.4335 304.36 89.9112 302.646 87.6175L316.469 83.3291C315.384 86.0592 315.874 89.1724 316.795 91.8798C317.608 94.1848 318.719 96.3749 320.1 98.3952Z" fill="#F8B9BF"/>
<path opacity="0.1" d="M279.376 139.35L278.975 143.665C278.975 143.665 277.632 143.571 275.637 143.363L275.767 136.348C277.4 136.835 278.655 137.305 279.213 137.529L279.376 139.35Z" fill="black"/>
<path d="M280.073 143.918L275.912 143.535L276.049 136.043L279.377 136.348L280.073 143.918Z" fill="#D9DFE8"/>
<path opacity="0.1" d="M320.103 98.3958C320.103 98.3958 318.059 99.9865 315.56 101.733C312.82 102.35 309.639 102.859 307.346 103.191C308.166 100.594 307.672 97.6719 306.748 95.1106C310.125 94.1367 314.956 92.8771 316.801 91.8643C317.612 94.1746 318.722 96.3703 320.103 98.3958Z" fill="black"/>
<path d="M317.338 92.0264C317.338 92.0264 319.65 97.2432 321.107 99.6C322.564 101.957 304.182 104.145 304.182 104.145C304.182 104.145 302.275 97.5775 303.186 96.8244C304.097 96.0713 315.8 93.5521 317.338 92.0264Z" fill="#D9DFE8"/>
<path opacity="0.1" d="M322.273 150.245C321.5 151.601 320.536 152.841 319.412 153.927C311.292 161.594 297.983 153.602 291.977 149.233C300.697 147.006 305.596 144.457 305.596 144.457C305.596 144.457 319.415 143.224 321.776 147.889C322.114 148.628 322.284 149.433 322.273 150.245Z" fill="black"/>
<path d="M319.466 153.378C310.236 162.091 294.317 150.553 290.026 147.154C289.33 146.602 288.941 146.262 288.941 146.262C290.637 144.684 292.126 141.34 293.305 137.25C294.404 133.336 295.198 129.345 295.679 125.31C296.501 118.489 298.907 111.95 302.708 106.212C303.208 105.465 303.688 104.767 304.187 104.157C307.672 99.7519 313.528 96.9535 313.528 96.9535C325.887 93.3631 327.55 111.585 327.22 112.111C326.89 112.636 330.195 143.246 319.466 153.378Z" fill="#6C63FF"/>
<path opacity="0.1" d="M320.662 128.47C320.662 128.47 312.715 147.753 309.537 148.853C307.718 149.48 298.001 148.292 290.026 147.159C289.33 146.607 288.941 146.266 288.941 146.266C290.636 144.688 292.126 141.345 293.305 137.254L303.577 137.741C303.577 137.741 303.005 131.852 304.514 118.646C306.023 105.441 314.387 108.713 314.387 108.713C328.226 113.319 320.662 128.47 320.662 128.47Z" fill="black"/>
<path opacity="0.1" d="M280.072 143.918L278.276 143.753L277.799 136.205L279.376 136.348L280.072 143.918Z" fill="black"/>
<path d="M314.186 107.862C314.186 107.862 305.821 104.592 304.312 117.795C302.804 130.998 303.375 136.89 303.375 136.89L278.314 135.699L278.879 144.645C278.879 144.645 306.154 149.096 309.332 147.999C312.51 146.902 320.457 127.615 320.457 127.615C320.457 127.615 328.011 112.465 314.186 107.862Z" fill="#6C63FF"/>
<path opacity="0.1" d="M314.748 88.3125C314.382 86.3387 316.456 86.3647 317.201 84.5078L303.379 88.7962C304.338 90.0764 305.195 91.43 305.94 92.8443C306.657 93.0559 307.393 93.1973 308.138 93.2663C311.433 93.578 312.462 90.3544 314.748 88.3125Z" fill="black"/>
<path d="M319.818 81.8249C320.398 75.5836 315.778 70.0564 309.499 69.4796C303.219 68.9028 297.658 73.4949 297.078 79.7362C296.498 85.9775 301.118 91.5047 307.397 92.0815C313.676 92.6583 319.237 88.0663 319.818 81.8249Z" fill="#F8B9BF"/>
<path opacity="0.1" d="M297.179 70.5293C297.32 71.711 298.574 72.4317 299.74 72.6979C300.906 72.9641 302.17 72.977 303.192 73.5971C304.825 74.5969 305.266 76.8174 305.06 78.7262C304.946 79.804 304.783 81.1253 305.671 81.7518C305.95 81.9216 306.262 82.0322 306.586 82.0764C307.512 82.2629 308.464 82.2958 309.401 82.1738C309.95 82.1024 310.515 81.979 311.034 82.1316C311.89 82.3783 312.396 83.2743 312.563 84.1411C312.729 85.0078 312.638 85.9103 312.772 86.7836C312.958 87.877 313.474 88.8885 314.251 89.6848C315.027 90.481 316.028 91.0247 317.122 91.244C317.635 91.368 318.175 91.32 318.657 91.1076C319.278 90.783 319.595 90.0915 319.862 89.4455L321.822 84.7838C322.704 82.6835 323.592 80.5636 324.063 78.3367C324.761 74.9825 324.49 71.5004 323.282 68.2926C322.818 67.072 322.178 65.8482 321.09 65.1145C318.912 63.6439 315.865 64.66 313.389 63.816C312.569 63.5335 311.831 63.0531 311.015 62.7642C309.248 62.1376 307.252 62.4688 305.55 63.2576C303.849 64.0465 302.474 65.2898 300.978 66.4228C299.681 67.4259 296.934 68.4874 297.179 70.5293Z" fill="black"/>
<path d="M297.482 70.2793C297.622 71.461 298.876 72.1817 300.042 72.4479C301.208 72.714 302.472 72.727 303.495 73.3471C305.128 74.3469 305.569 76.5674 305.363 78.4762C305.248 79.554 305.085 80.8752 305.974 81.5018C306.253 81.6716 306.564 81.7822 306.888 81.8264C307.815 82.0129 308.766 82.0458 309.703 81.9238C310.252 81.8524 310.817 81.729 311.336 81.8816C312.192 82.1283 312.698 83.0243 312.865 83.8911C313.032 84.7578 312.94 85.6603 313.074 86.5335C313.261 87.6269 313.776 88.6385 314.553 89.4347C315.329 90.231 316.331 90.7747 317.424 90.994C317.937 91.1179 318.477 91.07 318.959 90.8576C319.58 90.533 319.897 89.8415 320.165 89.1955L322.124 84.5338C323.006 82.4335 323.894 80.3136 324.365 78.0867C325.063 74.7325 324.792 71.2504 323.584 68.0426C323.12 66.822 322.48 65.5982 321.393 64.8645C319.214 63.3939 316.167 64.41 313.691 63.566C312.871 63.2835 312.133 62.8031 311.317 62.5142C309.55 61.8876 307.554 62.2188 305.853 63.0076C304.151 63.7965 302.776 65.0398 301.28 66.1728C299.987 67.1759 297.24 68.2374 297.482 70.2793Z" fill="#B96B6B"/>
<path opacity="0.1" d="M306.941 115.114C306.941 115.114 302.58 131.95 298.24 133.508C293.899 135.066 295.816 135.508 295.816 135.508" fill="black"/>
<path d="M307.145 176.787H302.406V207.747H307.145V176.787Z" fill="#D6D6E3"/>
<path opacity="0.1" d="M307.145 176.787H302.406V179.082H307.145V176.787Z" fill="black"/>
<path d="M292.926 176.624V177.273C292.926 177.473 292.965 177.671 293.042 177.856C293.119 178.041 293.232 178.209 293.374 178.35C293.517 178.491 293.686 178.603 293.871 178.68C294.057 178.757 294.256 178.796 294.458 178.796H315.093C315.294 178.796 315.493 178.757 315.679 178.68C315.865 178.603 316.034 178.491 316.176 178.35C316.318 178.209 316.431 178.041 316.508 177.856C316.585 177.671 316.625 177.473 316.625 177.273V176.624C316.625 176.424 316.585 176.226 316.508 176.041C316.431 175.857 316.318 175.689 316.176 175.547C316.034 175.406 315.865 175.294 315.679 175.217C315.493 175.141 315.294 175.102 315.093 175.102H294.458C294.256 175.102 294.057 175.141 293.871 175.217C293.686 175.294 293.517 175.406 293.374 175.547C293.232 175.689 293.119 175.857 293.042 176.041C292.965 176.226 292.926 176.424 292.926 176.624Z" fill="#D6D6E3"/>
<path opacity="0.1" d="M293.279 175.657H316.276C316.132 175.483 315.952 175.343 315.748 175.247C315.543 175.151 315.32 175.101 315.093 175.102H294.458C294.233 175.102 294.01 175.152 293.806 175.247C293.602 175.343 293.422 175.483 293.279 175.657Z" fill="black"/>
<path d="M322.449 206.062H287.107C286.115 206.062 285.311 206.862 285.311 207.848V207.978C285.311 208.964 286.115 209.763 287.107 209.763H322.449C323.441 209.763 324.246 208.964 324.246 207.978V207.848C324.246 206.862 323.441 206.062 322.449 206.062Z" fill="#D6D6E3"/>
<path d="M322.045 214.476C323.355 214.476 324.416 213.421 324.416 212.12C324.416 210.818 323.355 209.763 322.045 209.763C320.735 209.763 319.674 210.818 319.674 212.12C319.674 213.421 320.735 214.476 322.045 214.476Z" fill="#535461"/>
<path d="M287.51 214.476C288.819 214.476 289.881 213.421 289.881 212.12C289.881 210.818 288.819 209.763 287.51 209.763C286.2 209.763 285.139 210.818 285.139 212.12C285.139 213.421 286.2 214.476 287.51 214.476Z" fill="#535461"/>
<path d="M304.777 214.476C306.087 214.476 307.149 213.421 307.149 212.12C307.149 210.818 306.087 209.763 304.777 209.763C303.468 209.763 302.406 210.818 302.406 212.12C302.406 213.421 303.468 214.476 304.777 214.476Z" fill="#535461"/>
<path d="M334.207 138.76H302.516C300.983 138.76 299.74 139.995 299.74 141.519V141.72C299.74 143.244 300.983 144.48 302.516 144.48H334.207C335.74 144.48 336.983 143.244 336.983 141.72V141.519C336.983 139.995 335.74 138.76 334.207 138.76Z" fill="#D6D6E3"/>
<path opacity="0.1" d="M307.145 206.062C307.145 206.062 305.284 207.89 302.406 206.062H307.145Z" fill="black"/>
<path opacity="0.1" d="M336.983 141.679V142.13C336.983 142.754 336.734 143.353 336.29 143.794C335.846 144.236 335.243 144.484 334.615 144.484H302.108C301.48 144.484 300.878 144.236 300.434 143.794C299.99 143.353 299.74 142.754 299.74 142.13V141.679H336.983Z" fill="black"/>
<path d="M275.02 146.938H268.615V228.05H275.02V146.938Z" fill="#D6D6E3"/>
<path opacity="0.1" d="M275.02 146.938H268.615V152.197H275.02V146.938Z" fill="black"/>
<path d="M80.8192 179.001H76.0801V209.961H80.8192V179.001Z" fill="#D6D6E3"/>
<path opacity="0.1" d="M80.8192 179.001H76.0801V181.296H80.8192V179.001Z" fill="black"/>
<path d="M90.2983 178.843V179.492C90.2983 179.896 90.1369 180.283 89.8497 180.568C89.5624 180.854 89.1728 181.014 88.7665 181.014H68.1314C67.7251 181.014 67.3355 180.854 67.0483 180.568C66.761 180.283 66.5996 179.896 66.5996 179.492V178.843C66.6031 178.441 66.766 178.057 67.0529 177.774C67.3397 177.492 67.7274 177.333 68.1314 177.333H88.7665C88.9677 177.333 89.1669 177.372 89.3527 177.449C89.5385 177.525 89.7074 177.638 89.8497 177.779C89.9919 177.92 90.1047 178.088 90.1817 178.273C90.2587 178.458 90.2983 178.656 90.2983 178.856V178.843Z" fill="#D6D6E3"/>
<path opacity="0.1" d="M89.947 177.871H66.9473C67.0922 177.7 67.2733 177.563 67.4777 177.47C67.6821 177.377 67.9047 177.33 68.1296 177.332H88.7647C88.9895 177.33 89.2121 177.377 89.4165 177.47C89.6209 177.563 89.8021 177.7 89.947 177.871Z" fill="black"/>
<path d="M96.121 208.276H60.7788C59.7867 208.276 58.9824 209.076 58.9824 210.062V210.192C58.9824 211.178 59.7867 211.977 60.7788 211.977H96.121C97.1131 211.977 97.9173 211.178 97.9173 210.192V210.062C97.9173 209.076 97.1131 208.276 96.121 208.276Z" fill="#D6D6E3"/>
<path d="M61.1837 216.69C62.4932 216.69 63.5548 215.635 63.5548 214.333C63.5548 213.032 62.4932 211.977 61.1837 211.977C59.8741 211.977 58.8125 213.032 58.8125 214.333C58.8125 215.635 59.8741 216.69 61.1837 216.69Z" fill="#535461"/>
<path d="M95.7149 216.69C97.0245 216.69 98.0861 215.635 98.0861 214.333C98.0861 213.032 97.0245 211.977 95.7149 211.977C94.4054 211.977 93.3438 213.032 93.3438 214.333C93.3438 215.635 94.4054 216.69 95.7149 216.69Z" fill="#535461"/>
<path d="M78.4474 216.69C79.7569 216.69 80.8185 215.635 80.8185 214.333C80.8185 213.032 79.7569 211.977 78.4474 211.977C77.1378 211.977 76.0762 213.032 76.0762 214.333C76.0762 215.635 77.1378 216.69 78.4474 216.69Z" fill="#535461"/>
<path opacity="0.1" d="M76.0801 208.276C76.0801 208.276 77.9417 210.104 80.8192 208.276H76.0801Z" fill="black"/>
<path d="M196.98 115.075C196.98 115.075 191.663 105.469 193.606 97.1199C194.444 93.6229 194.117 89.9505 192.676 86.6538C191.984 85.0945 191.149 83.6015 190.184 82.1934" stroke="#535461" stroke-width="2" stroke-miterlimit="10"/>
<path d="M191.362 76.9209C191.639 78.1804 190.153 82.3325 190.153 82.3325C190.153 82.3325 187.054 79.1835 186.773 77.924C186.679 77.6161 186.65 77.2923 186.688 76.9728C186.726 76.6533 186.83 76.345 186.993 76.0673C187.157 75.7896 187.376 75.5486 187.638 75.3592C187.9 75.1698 188.198 75.0363 188.514 74.967C188.83 74.8976 189.157 74.894 189.475 74.9563C189.792 75.0185 190.093 75.1454 190.359 75.3289C190.625 75.5124 190.85 75.7485 191.02 76.0225C191.19 76.2964 191.3 76.6023 191.346 76.9209H191.362Z" fill="#6C63FF"/>
<path d="M196.696 83.0659C196.242 84.2735 192.724 86.9615 192.724 86.9615C192.724 86.9615 191.842 82.6439 192.299 81.4428C192.397 81.1437 192.555 80.8673 192.763 80.6304C192.971 80.3934 193.225 80.2007 193.51 80.0638C193.795 79.9269 194.105 79.8486 194.421 79.8337C194.737 79.8188 195.053 79.8675 195.35 79.9769C195.646 80.0864 195.918 80.2543 196.147 80.4706C196.377 80.6869 196.561 80.9471 196.687 81.2357C196.813 81.5242 196.879 81.835 196.881 82.1495C196.883 82.4641 196.821 82.7758 196.699 83.0659H196.696Z" fill="#6C63FF"/>
<path d="M199.165 95.0189C198.159 95.8338 193.76 96.3824 193.76 96.3824C193.76 96.3824 195.194 92.2142 196.2 91.3993C196.438 91.2027 196.714 91.0549 197.01 90.9646C197.307 90.8744 197.618 90.8434 197.927 90.8734C198.236 90.9035 198.535 90.994 198.808 91.1397C199.082 91.2854 199.323 91.4835 199.519 91.7225C199.715 91.9615 199.861 92.2367 199.949 92.5321C200.038 92.8276 200.066 93.1375 200.033 93.444C200 93.7505 199.907 94.0475 199.758 94.3178C199.609 94.5881 199.407 94.8264 199.165 95.0189Z" fill="#6C63FF"/>
<path d="M198.986 104.479C198.133 105.453 193.891 106.732 193.891 106.732C193.891 106.732 194.593 102.382 195.445 101.412C195.645 101.17 195.891 100.971 196.169 100.825C196.448 100.68 196.753 100.592 197.066 100.566C197.379 100.54 197.695 100.577 197.993 100.674C198.292 100.771 198.568 100.928 198.805 101.133C199.042 101.338 199.235 101.589 199.373 101.87C199.51 102.151 199.59 102.457 199.606 102.769C199.623 103.081 199.576 103.393 199.469 103.687C199.362 103.981 199.196 104.25 198.982 104.479H198.986Z" fill="#6C63FF"/>
<path d="M187.963 88.2505C189.067 88.929 193.499 88.8998 193.499 88.8998C193.499 88.8998 191.539 84.949 190.435 84.2705C190.173 84.0992 189.879 83.9819 189.571 83.9254C189.262 83.8689 188.945 83.8744 188.639 83.9416C188.333 84.0088 188.043 84.1364 187.787 84.3167C187.531 84.4971 187.314 84.7265 187.149 84.9916C186.984 85.2567 186.874 85.552 186.825 85.8601C186.777 86.1682 186.791 86.4828 186.867 86.7854C186.942 87.0879 187.079 87.3723 187.267 87.6217C187.455 87.8711 187.692 88.0805 187.963 88.2375V88.2505Z" fill="#6C63FF"/>
<path d="M187.897 99.3209C189.154 99.6455 193.377 98.3081 193.377 98.3081C193.377 98.3081 190.317 95.1202 189.059 94.802C188.467 94.6767 187.848 94.7841 187.333 95.1019C186.818 95.4196 186.446 95.923 186.296 96.5068C186.146 97.0905 186.228 97.7094 186.527 98.2339C186.825 98.7584 187.316 99.1479 187.897 99.3209Z" fill="#6C63FF"/>
<path d="M189.312 110.085C190.494 110.611 194.887 110.008 194.887 110.008C194.887 110.008 192.411 106.352 191.229 105.826C190.66 105.574 190.014 105.556 189.432 105.777C188.85 105.998 188.381 106.44 188.126 107.005C187.872 107.57 187.854 108.212 188.077 108.791C188.299 109.369 188.743 109.836 189.312 110.089V110.085Z" fill="#6C63FF"/>
<path d="M191.362 76.9209C191.639 78.1804 190.153 82.3325 190.153 82.3325C190.153 82.3325 187.054 79.1835 186.773 77.924C186.679 77.6161 186.65 77.2923 186.688 76.9728C186.726 76.6533 186.83 76.345 186.993 76.0673C187.157 75.7896 187.376 75.5486 187.638 75.3592C187.9 75.1698 188.198 75.0363 188.514 74.967C188.83 74.8976 189.157 74.894 189.475 74.9563C189.792 75.0185 190.093 75.1454 190.359 75.3289C190.625 75.5124 190.85 75.7485 191.02 76.0225C191.19 76.2964 191.3 76.6023 191.346 76.9209H191.362Z" fill="#6C63FF"/>
<path d="M196.696 83.0659C196.242 84.2735 192.724 86.9615 192.724 86.9615C192.724 86.9615 191.842 82.6439 192.299 81.4428C192.397 81.1437 192.555 80.8673 192.763 80.6304C192.971 80.3934 193.225 80.2007 193.51 80.0638C193.795 79.9269 194.105 79.8486 194.421 79.8337C194.737 79.8188 195.053 79.8675 195.35 79.9769C195.646 80.0864 195.918 80.2543 196.147 80.4706C196.377 80.6869 196.561 80.9471 196.687 81.2357C196.813 81.5242 196.879 81.835 196.881 82.1495C196.883 82.4641 196.821 82.7758 196.699 83.0659H196.696Z" fill="#6C63FF"/>
<path d="M199.165 95.0189C198.159 95.8338 193.76 96.3824 193.76 96.3824C193.76 96.3824 195.194 92.2142 196.2 91.3993C196.438 91.2027 196.714 91.0549 197.01 90.9646C197.307 90.8744 197.618 90.8434 197.927 90.8734C198.236 90.9035 198.535 90.994 198.808 91.1397C199.082 91.2854 199.323 91.4835 199.519 91.7225C199.715 91.9615 199.861 92.2367 199.949 92.5321C200.038 92.8276 200.066 93.1375 200.033 93.444C200 93.7505 199.907 94.0475 199.758 94.3178C199.609 94.5881 199.407 94.8264 199.165 95.0189Z" fill="#6C63FF"/>
<path d="M198.986 104.479C198.133 105.453 193.891 106.732 193.891 106.732C193.891 106.732 194.593 102.382 195.445 101.412C195.645 101.17 195.891 100.971 196.169 100.825C196.448 100.68 196.753 100.592 197.066 100.566C197.379 100.54 197.695 100.577 197.993 100.674C198.292 100.771 198.568 100.928 198.805 101.133C199.042 101.338 199.235 101.589 199.373 101.87C199.51 102.151 199.59 102.457 199.606 102.769C199.623 103.081 199.576 103.393 199.469 103.687C199.362 103.981 199.196 104.25 198.982 104.479H198.986Z" fill="#6C63FF"/>
<path d="M187.963 88.2505C189.067 88.929 193.499 88.8998 193.499 88.8998C193.499 88.8998 191.539 84.949 190.435 84.2705C190.173 84.0992 189.879 83.9819 189.571 83.9254C189.262 83.8689 188.945 83.8744 188.639 83.9416C188.333 84.0088 188.043 84.1364 187.787 84.3167C187.531 84.4971 187.314 84.7265 187.149 84.9916C186.984 85.2567 186.874 85.552 186.825 85.8601C186.777 86.1682 186.791 86.4828 186.867 86.7854C186.942 87.0879 187.079 87.3723 187.267 87.6217C187.455 87.8711 187.692 88.0805 187.963 88.2375V88.2505Z" fill="#6C63FF"/>
<path d="M187.897 99.3209C189.154 99.6455 193.377 98.3081 193.377 98.3081C193.377 98.3081 190.317 95.1202 189.059 94.802C188.467 94.6767 187.848 94.7841 187.333 95.1019C186.818 95.4196 186.446 95.923 186.296 96.5068C186.146 97.0905 186.228 97.7094 186.527 98.2339C186.825 98.7584 187.316 99.1479 187.897 99.3209Z" fill="#6C63FF"/>
<path d="M189.312 110.085C190.494 110.611 194.887 110.008 194.887 110.008C194.887 110.008 192.411 106.352 191.229 105.826C190.66 105.574 190.014 105.556 189.432 105.777C188.85 105.998 188.381 106.44 188.126 107.005C187.872 107.57 187.854 108.212 188.077 108.791C188.299 109.369 188.743 109.836 189.312 110.089V110.085Z" fill="#6C63FF"/>
<path d="M194.818 141.717C194.053 141.717 193.296 141.562 192.594 141.26C191.892 140.958 191.26 140.516 190.736 139.962C190.212 139.408 189.809 138.753 189.55 138.037C189.29 137.322 189.182 136.561 189.23 135.802L190.794 111.163H198.842L200.406 135.802C200.455 136.561 200.346 137.322 200.087 138.037C199.828 138.753 199.424 139.408 198.9 139.962C198.377 140.516 197.744 140.958 197.042 141.26C196.34 141.562 195.583 141.717 194.818 141.717Z" fill="#6C63FF"/>
<path opacity="0.1" d="M31.8772 20.5879H27.3047V39.4164H31.8772V20.5879Z" fill="#6C63FF"/>
<path opacity="0.1" d="M37.7561 20.5879H33.1836V39.4164H37.7561V20.5879Z" fill="#6C63FF"/>
<path opacity="0.1" d="M43.635 20.5879H39.0625V39.4164H43.635V20.5879Z" fill="#6C63FF"/>
<path opacity="0.1" d="M49.5139 20.5879H44.9414V39.4164H49.5139V20.5879Z" fill="#6C63FF"/>
<path opacity="0.1" d="M61.2717 20.5879H56.6992V39.4164H61.2717V20.5879Z" fill="#6C63FF"/>
<path opacity="0.1" d="M67.1506 20.5879H62.5781V39.4164H67.1506V20.5879Z" fill="#6C63FF"/>
<path opacity="0.1" d="M31.8772 24.1592H27.3047V25.1331H31.8772V24.1592Z" fill="#6C63FF"/>
<path opacity="0.1" d="M31.8772 35.8457H27.3047V36.8196H31.8772V35.8457Z" fill="#6C63FF"/>
<path opacity="0.1" d="M37.7561 24.1592H33.1836V25.1331H37.7561V24.1592Z" fill="#6C63FF"/>
<path opacity="0.1" d="M37.7561 35.8457H33.1836V36.8196H37.7561V35.8457Z" fill="#6C63FF"/>
<path opacity="0.1" d="M43.635 24.1592H39.0625V25.1331H43.635V24.1592Z" fill="#6C63FF"/>
<path opacity="0.1" d="M43.635 35.8457H39.0625V36.8196H43.635V35.8457Z" fill="#6C63FF"/>
<path opacity="0.1" d="M49.5139 24.1592H44.9414V25.1331H49.5139V24.1592Z" fill="#6C63FF"/>
<path opacity="0.1" d="M49.5139 35.8457H44.9414V36.8196H49.5139V35.8457Z" fill="#6C63FF"/>
<path opacity="0.1" d="M55.3928 24.1592H50.8203V25.1331H55.3928V24.1592Z" fill="#6C63FF"/>
<path opacity="0.1" d="M55.3928 35.8457H50.8203V36.8196H55.3928V35.8457Z" fill="#6C63FF"/>
<path opacity="0.1" d="M61.2717 24.1592H56.6992V25.1331H61.2717V24.1592Z" fill="#6C63FF"/>
<path opacity="0.1" d="M61.2717 35.8457H56.6992V36.8196H61.2717V35.8457Z" fill="#6C63FF"/>
<path opacity="0.1" d="M67.1506 24.1592H62.5781V25.1331H67.1506V24.1592Z" fill="#6C63FF"/>
<path opacity="0.1" d="M67.1506 35.8457H62.5781V36.8196H67.1506V35.8457Z" fill="#6C63FF"/>
<path opacity="0.1" d="M55.3928 20.5879H50.8203V39.4164H55.3928V20.5879Z" fill="#6C63FF"/>
<path opacity="0.1" d="M71.4503 20.5019L67.3008 22.4111L75.2586 39.4977L79.4081 37.5885L71.4503 20.5019Z" fill="#6C63FF"/>
<path opacity="0.1" d="M72.962 23.7451L68.8125 25.6543L69.2241 26.5381L73.3736 24.6289L72.962 23.7451Z" fill="#6C63FF"/>
<path opacity="0.1" d="M77.8975 34.3496L73.748 36.2588L74.1597 37.1426L78.3091 35.2334L77.8975 34.3496Z" fill="#6C63FF"/>
<path d="M127.098 214.733L118.799 209.471C118.756 202.059 118.639 167.652 120.19 163.049C120.59 161.716 120.613 160.3 120.255 158.955C119.178 154.277 115.245 150.784 110.48 150.015C105.986 149.288 99.5191 148.096 94.3129 146.557C98.954 146.08 102.432 145.668 102.432 145.668L102.524 144.814L105.512 144.671V144.545L105.796 144.529C112.776 144.116 127.598 142.743 122.561 138.633C120.833 137.224 118.58 136.559 116.202 136.335C123.472 134.686 134.835 131.491 129.769 128.489C124.955 125.638 117.584 127.878 113.184 129.699L112.913 129.813L112.864 129.42L111.107 129.771L110.549 129.881L110.522 129.31L85.8669 133.095C85.6736 130.287 85.3378 127.491 84.8609 124.716C85.4129 121.061 87.98 115.731 87.0753 112.871C86.0236 109.55 81.7059 108.462 79.8899 105.462C79.4131 104.68 78.9395 103.946 78.4757 103.304C77.4607 101.933 76.294 100.679 74.9974 99.5672C75.0759 97.6385 75.5098 95.7404 76.2777 93.9674C76.7699 92.7812 77.3462 91.6313 78.0022 90.5263C80.876 89.8177 83.3696 88.046 84.9743 85.5727C86.579 83.0994 87.1739 80.1108 86.6377 77.2164C88.1988 77.8819 90.0964 77.9501 91.073 76.6516L90.6092 76.473C90.6549 76.4243 90.7007 76.3756 90.7399 76.3204C89.7894 75.9601 88.7802 75.5511 88.0355 74.8953C87.847 74.6848 87.6877 74.45 87.562 74.1974C87.1112 73.2884 87.1635 72.1976 86.7324 71.2757C86.5295 70.8559 86.2415 70.4824 85.8865 70.1784C85.1301 69.4098 84.1733 68.8657 83.1234 68.6072C81.9443 68.2664 80.7032 68.0943 79.5731 67.6333C78.033 65.8558 75.9999 64.569 73.7279 63.9339C71.456 63.2988 69.046 63.3435 66.7995 64.0624L66.3913 64.202C66.6748 62.8433 66.4103 61.4282 65.6547 60.2613C64.8992 59.0944 63.7129 58.269 62.3513 57.9627C60.9896 57.6563 59.5614 57.8936 58.3739 58.6233C57.1864 59.3531 56.3347 60.517 56.0019 61.8647C56.1054 60.6815 56.6071 59.5676 57.4259 58.7028C57.341 58.7742 57.2528 58.8424 57.1711 58.917C56.6611 59.3936 56.2506 59.9654 55.9629 60.5997C55.6752 61.234 55.5161 61.9185 55.4946 62.6139C55.473 63.3093 55.5895 64.0022 55.8374 64.6529C56.0853 65.3036 56.4597 65.8994 56.9392 66.4062L57.0339 66.4971C57.411 66.9557 57.8625 67.3485 58.3698 67.6593C57.4362 67.3316 56.613 66.752 55.9923 65.9854C55.3716 65.2188 54.9779 64.2955 54.8555 63.319C54.8555 63.4294 54.8555 63.5398 54.8555 63.6436C54.8962 64.3413 55.0754 65.024 55.3827 65.6525C55.69 66.281 56.1194 66.8428 56.6461 67.3057C57.1728 67.7686 57.7865 68.1233 58.4517 68.3495C59.1169 68.5756 59.8205 68.6687 60.5221 68.6235L60.6691 68.6072L60.5907 68.7144C59.0718 70.9348 58.3518 73.5999 58.5475 76.2779C58.7431 78.9559 59.8429 81.4898 61.6685 83.4688C61.8853 83.9623 62.1736 84.4217 62.5242 84.8323C62.6474 84.9724 62.7794 85.1047 62.9194 85.2283C63.8139 86.1664 65.0371 86.7266 66.3357 86.793C66.5535 87.0506 66.7854 87.2984 67.0314 87.5364C66.816 88.4472 66.5344 89.3412 66.1888 90.2114C65.4927 91.9443 64.6263 93.6047 63.602 95.1685C56.5473 97.1617 55.9267 109.069 56.1815 109.52C56.4852 110.059 55.1298 128.758 60.3555 151.346C60.14 157.803 63.9286 168.48 77.3783 165.665C94.1986 166.558 99.715 169.119 99.715 169.119C99.715 169.119 98.1179 198.196 100.398 202.43C101.825 205.082 100.812 208.977 99.7444 211.727C99.3485 212.407 99.0329 213.13 98.8038 213.883C98.4772 214.567 98.2388 214.983 98.2388 214.983H98.4674C97.6051 217.96 96.9944 221.553 96.9944 221.553C96.9944 221.553 117.385 225.667 126.353 222.975C129.835 221.93 129.979 220.963 128.848 220.164C129.681 220.042 130.504 219.863 131.311 219.628C140.286 216.937 127.098 214.733 127.098 214.733Z" fill="url(#paint1_linear)"/>
<path d="M82.7306 76.6974C82.7306 79.0088 82.041 81.2683 80.749 83.1902C79.4571 85.1121 77.6207 86.61 75.4723 87.4945C73.3238 88.3791 70.9597 88.6105 68.6789 88.1596C66.3981 87.7086 64.303 86.5956 62.6587 84.9612C61.0143 83.3268 59.8945 81.2444 59.4408 78.9774C58.9871 76.7104 59.2199 74.3606 60.1099 72.2251C60.9998 70.0897 62.5068 68.2645 64.4404 66.9803C66.374 65.6962 68.6472 65.0107 70.9727 65.0107C72.5168 65.0107 74.0457 65.313 75.4723 65.9003C76.8988 66.4877 78.195 67.3485 79.2868 68.4337C80.3786 69.5189 81.2447 70.8072 81.8356 72.2251C82.4265 73.643 82.7306 75.1627 82.7306 76.6974Z" fill="#FA595F"/>
<path d="M109.215 131.602L110.407 137.517C110.407 137.517 111.733 137.28 113.696 136.867C120.401 135.455 134.569 131.969 129.082 128.716C124.363 125.921 117.135 128.119 112.824 129.904C111.243 130.553 110.054 131.157 109.522 131.439C109.323 131.54 109.215 131.602 109.215 131.602Z" fill="#F8B9BF"/>
<path opacity="0.1" d="M109.551 133.271L110.407 137.517C110.407 137.517 111.733 137.28 113.695 136.868L112.823 129.904C111.243 130.554 110.054 131.157 109.521 131.44L109.551 133.271Z" fill="black"/>
<path d="M109.345 137.883L113.441 137.068L112.514 129.631L109.234 130.283L109.345 137.883Z" fill="#D9DFE8"/>
<path opacity="0.1" d="M109.345 137.884L111.112 137.53L110.789 129.976L109.234 130.284L109.345 137.884Z" fill="black"/>
<path d="M71.5957 105.589C71.5957 105.589 79.5682 101.46 82.4652 114.436C85.3622 127.411 85.4046 133.326 85.4046 133.326L110.201 129.518L110.586 138.475C110.586 138.475 83.9349 145.756 80.659 144.996C77.3832 144.237 67.4379 125.892 67.4379 125.892C67.4379 125.892 58.3256 111.624 71.5957 105.589Z" fill="#6C63FF"/>
<g opacity="0.1">
<path opacity="0.1" d="M109.213 131.602L110.405 137.517C110.405 137.517 111.731 137.28 113.694 136.867C120.399 135.455 134.567 131.969 129.08 128.716C124.361 125.921 117.133 128.119 112.822 129.904C111.241 130.553 110.052 131.157 109.52 131.439C109.321 131.54 109.213 131.602 109.213 131.602Z" fill="black"/>
<path opacity="0.1" d="M109.551 133.271L110.407 137.517C110.407 137.517 111.733 137.28 113.696 136.868L112.823 129.904C111.243 130.554 110.054 131.157 109.521 131.44L109.551 133.271Z" fill="black"/>
<path opacity="0.1" d="M109.343 137.884L113.439 137.069L112.512 129.632L109.232 130.284L109.343 137.884Z" fill="black"/>
<path opacity="0.1" d="M109.343 137.884L111.11 137.53L110.787 129.976L109.232 130.284L109.343 137.884Z" fill="black"/>
<path opacity="0.1" d="M72.248 106.239C72.248 106.239 80.2205 102.11 83.1175 115.085C86.0145 128.061 86.057 133.975 86.057 133.975L110.853 130.167L111.238 139.124C111.238 139.124 84.5873 146.405 81.3114 145.646C78.0355 144.886 68.0903 126.541 68.0903 126.541C68.0903 126.541 58.9779 112.274 72.248 106.239Z" fill="black"/>
</g>
<path d="M116.697 207.105L126.475 213.273C126.475 213.273 139.406 215.425 130.61 218.064C121.815 220.703 101.826 216.668 101.826 216.668C101.826 216.668 103.345 207.728 104.962 206.543C106.578 205.358 116.697 207.105 116.697 207.105Z" fill="#F37291"/>
<path d="M80.4437 140.941C80.4437 140.941 85.32 143.756 94.0894 146.385C99.2302 147.927 105.697 149.119 110.165 149.843C112.457 150.194 114.592 151.215 116.299 152.776C118.006 154.337 119.208 156.367 119.751 158.608C120.102 159.925 120.08 161.314 119.689 162.62C117.984 167.691 118.33 209.519 118.33 209.519L103.032 210.25C103.032 210.25 105.452 202.65 102.47 198.638C99.4882 194.625 104.482 165.289 104.482 165.289C104.482 165.289 99.0636 162.776 82.5699 161.903C67.1116 165.149 61.556 148.22 64.1231 143.662C66.6903 139.104 80.4437 140.941 80.4437 140.941Z" fill="#96A2D0"/>
<g opacity="0.1">
<path opacity="0.1" d="M116.697 207.105L126.475 213.273C126.475 213.273 139.406 215.425 130.61 218.064C121.815 220.703 101.826 216.668 101.826 216.668C101.826 216.668 103.345 207.728 104.962 206.543C106.578 205.358 116.697 207.105 116.697 207.105Z" fill="black"/>
<path opacity="0.1" d="M80.4437 140.941C80.4437 140.941 85.32 143.756 94.0894 146.385C99.2302 147.927 105.697 149.119 110.165 149.843C112.457 150.194 114.592 151.215 116.299 152.776C118.006 154.337 119.208 156.367 119.751 158.608C120.102 159.925 120.08 161.314 119.689 162.62C117.984 167.691 118.33 209.519 118.33 209.519L103.032 210.25C103.032 210.25 105.452 202.65 102.47 198.638C99.4882 194.625 104.482 165.289 104.482 165.289C104.482 165.289 99.0636 162.776 82.5699 161.903C67.1116 165.149 61.556 148.22 64.1231 143.662C66.6903 139.104 80.4437 140.941 80.4437 140.941Z" fill="black"/>
</g>
<path d="M111.826 210.386L121.604 216.554C121.604 216.554 134.535 218.706 125.739 221.345C116.943 223.985 96.9551 219.949 96.9551 219.949C96.9551 219.949 98.4738 211.009 100.091 209.824C101.707 208.639 111.826 210.386 111.826 210.386Z" fill="#F37291"/>
<path d="M77.7119 165.181C94.2056 166.055 99.624 168.567 99.624 168.567C99.624 168.567 98.0596 197.076 100.277 201.225C102.645 205.627 98.1608 213.529 98.1608 213.529L113.459 212.798C113.459 212.798 113.459 212.305 113.459 211.422C113.413 204.157 113.302 170.421 114.821 165.899C115.212 164.593 115.234 163.204 114.883 161.886C114.339 159.646 113.138 157.616 111.431 156.055C109.724 154.495 107.589 153.474 105.297 153.121C100.826 152.401 94.3624 151.209 89.2216 149.667L88.9701 149.59C80.3574 146.992 75.5792 144.223 75.5792 144.223C75.5792 144.223 65.3923 143.522 62.8415 148.08C62.5149 148.671 61.1072 149.833 61.0484 150.771C60.6663 157.05 64.2622 167.996 77.7119 165.181Z" fill="#96A2D0"/>
<path d="M101.938 138.572L102.228 144.597C102.228 144.597 103.574 144.561 105.579 144.441C112.422 144.035 126.956 142.691 122.017 138.663C117.771 135.199 110.292 136.303 105.762 137.429C104.1 137.845 102.823 138.26 102.267 138.458C102.052 138.53 101.938 138.572 101.938 138.572Z" fill="#F8B9BF"/>
<path d="M63.1328 97.5678C63.1328 97.5678 65.0925 99.2462 67.5224 101.103C70.2333 101.837 73.4014 102.489 75.6648 102.921C74.9626 100.275 75.5864 97.4023 76.6217 94.8734C77.7453 92.2429 79.2362 89.7829 81.0505 87.566L67.431 82.6738C68.3945 85.4494 67.7576 88.5496 66.7222 91.2018C65.8083 93.4694 64.6017 95.6094 63.1328 97.5678Z" fill="#F8B9BF"/>
<path opacity="0.1" d="M102.02 140.27L102.229 144.597C102.229 144.597 103.574 144.561 105.58 144.441L105.762 137.426C104.1 137.841 102.823 138.257 102.268 138.455L102.02 140.27Z" fill="black"/>
<path d="M101.125 144.802L105.296 144.604L105.492 137.111L102.154 137.27L101.125 144.802Z" fill="#D9DFE8"/>
<path d="M61.3479 152.525C70.1663 161.637 86.611 150.807 91.0333 147.6C91.7518 147.077 92.1535 146.756 92.1535 146.756C90.5205 145.104 87.9076 143.575 86.905 139.436C85.9483 135.211 85.3 130.924 84.9649 126.606C84.6938 123.181 88.2538 116.66 87.225 113.407C86.1962 110.154 81.9601 109.086 80.1801 106.142C79.713 105.375 79.2493 104.655 78.792 104.025C75.5063 99.4801 69.7809 96.4188 69.7809 96.4188C57.5821 92.2798 56.6251 109.596 56.9289 110.134C57.2326 110.673 55.838 129.762 61.3479 152.525Z" fill="#6C63FF"/>
<path opacity="0.1" d="M61.255 127.586C61.255 127.586 68.3391 147.2 71.4648 148.437C73.2546 149.145 83.0169 148.382 91.0319 147.6C91.7504 147.077 92.1521 146.756 92.1521 146.756C90.5191 145.103 89.1898 141.698 88.1904 137.562L77.9055 137.598C77.9055 137.598 78.7383 131.755 77.8173 118.48C76.8963 105.206 68.3947 108.125 68.3947 108.125C54.3734 112.121 61.255 127.586 61.255 127.586Z" fill="black"/>
<path opacity="0.1" d="M101.125 144.801L102.925 144.717L103.738 137.195L102.154 137.27L101.125 144.801Z" fill="black"/>
<path d="M68.6364 107.28C68.6364 107.28 77.1282 104.381 78.059 117.636C78.9899 130.891 78.157 136.753 78.157 136.753L103.247 136.662L102.284 145.577C102.284 145.577 74.8485 148.823 71.713 147.593C68.5776 146.362 61.5 126.745 61.5 126.745C61.5 126.745 54.6119 111.276 68.6364 107.28Z" fill="#6C63FF"/>
<path opacity="0.1" d="M68.9464 87.7344C69.4004 85.7866 67.3134 85.725 66.6602 83.8389L80.2862 88.7083C79.2712 89.9451 78.3561 91.2596 77.5493 92.6396C76.8235 92.8193 76.0819 92.928 75.3349 92.9642C72.023 93.1265 71.1379 89.8705 68.9464 87.7344Z" fill="black"/>
<path d="M76.112 91.8267C82.4109 91.526 87.2718 86.2069 86.9693 79.9462C86.6667 73.6855 81.3152 68.854 75.0164 69.1547C68.7175 69.4554 63.8566 74.7745 64.1592 81.0352C64.4617 87.2959 69.8132 92.1274 76.112 91.8267Z" fill="#F8B9BF"/>
<path opacity="0.1" d="M69.6641 115.698C69.6641 115.698 73.2763 132.706 77.5418 134.442C81.8073 136.179 79.8738 136.549 79.8738 136.549" fill="black"/>
<path opacity="0.1" d="M84.5517 125.304C84.5517 125.304 81.5338 126.242 78.0195 121.759L84.5517 125.304Z" fill="black"/>
<path d="M61.8253 69.8794C64.7114 69.8794 67.0511 67.5539 67.0511 64.6853C67.0511 61.8167 64.7114 59.4912 61.8253 59.4912C58.9392 59.4912 56.5996 61.8167 56.5996 64.6853C56.5996 67.5539 58.9392 69.8794 61.8253 69.8794Z" fill="#FA595F"/>
<path d="M58.1549 67.4284C57.2465 66.4657 56.7409 65.1953 56.7409 63.8754C56.7409 62.5554 57.2465 61.285 58.1549 60.3223C58.07 60.3904 57.985 60.4586 57.9067 60.5333C56.8967 61.4769 56.3051 62.7807 56.2623 64.1578C56.2194 65.5349 56.7287 66.8725 57.678 67.8764C58.6274 68.8803 59.9391 69.4683 61.3246 69.5109C62.7101 69.5535 64.0559 69.0473 65.0659 68.1037C65.1476 68.029 65.2194 67.9478 65.2913 67.8699C64.268 68.7115 62.9608 69.1342 61.6352 69.0522C60.3097 68.9702 59.0652 68.3896 58.1549 67.4284Z" fill="#FA595F"/>
<path d="M61.1426 69.3894C59.8164 69.4688 58.5095 69.0431 57.4878 68.1988C56.4661 67.3545 55.8063 66.1551 55.6426 64.8446C55.6426 64.9517 55.6426 65.0588 55.6426 65.1692C55.7292 66.5442 56.3618 67.8286 57.4012 68.74C57.9159 69.1913 58.515 69.5374 59.1642 69.7585C59.8134 69.9797 60.5001 70.0716 61.1851 70.0289C61.8701 69.9863 62.5399 69.81 63.1563 69.5101C63.7727 69.2101 64.3236 68.7925 64.7777 68.2809C65.2317 67.7694 65.5799 67.1739 65.8024 66.5286C66.0249 65.8833 66.1173 65.2008 66.0744 64.5199C66.0744 64.4096 66.0516 64.3057 66.0385 64.1953C66.0411 65.5179 65.5361 66.7917 64.6263 67.7569C63.7166 68.722 62.4706 69.3059 61.1426 69.3894Z" fill="#FA595F"/>
<path opacity="0.1" d="M79.7737 69.2016C80.992 69.7989 82.3866 69.9645 83.693 70.3411C84.9994 70.7176 86.332 71.4059 86.9068 72.633C87.3282 73.5354 87.2792 74.6035 87.7201 75.4962C88.3537 76.7947 89.8169 77.392 91.1625 77.9017C90.0063 79.4437 87.5241 79.0249 85.9041 77.9764C84.2842 76.9278 82.8895 75.3793 81.005 74.9735C80.0752 74.7913 79.1115 74.899 78.2457 75.2819C77.3798 75.6649 76.6542 76.3043 76.168 77.1128C75.6519 78.0121 75.469 79.0606 75.2143 80.0605C74.561 82.6965 73.2546 85.3195 70.9684 86.816C68.6821 88.3126 65.2756 88.3028 63.4825 86.2544C62.4374 85.0598 62.0879 83.4334 61.7776 81.8817C61.6009 81.1581 61.5164 80.4154 61.5261 79.6709C61.6307 77.8076 62.8783 76.2201 64.139 74.8372C65.6251 73.214 67.2058 71.6558 68.7866 70.1073C70.1518 68.7699 71.7261 66.5039 73.7837 66.3449C76.1549 66.1566 77.8304 68.2569 79.7737 69.2016Z" fill="black"/>
<path d="M79.4475 68.8764C80.6658 69.4737 82.0604 69.6393 83.3668 70.0159C84.6733 70.3924 86.0058 71.0807 86.5807 72.3078C87.002 73.2102 86.953 74.2783 87.3939 75.171C88.0275 76.4695 89.4907 77.0668 90.8363 77.5765C89.6802 79.1185 87.1979 78.6997 85.578 77.6512C83.958 76.6026 82.5634 75.0541 80.6788 74.6483C79.7491 74.4661 78.7853 74.5738 77.9195 74.9567C77.0537 75.3397 76.328 75.9791 75.8418 76.7877C75.3257 77.6869 75.1428 78.7354 74.8881 79.7353C74.2349 82.3713 72.9284 84.9943 70.6422 86.4909C68.3559 87.9874 64.9494 87.9777 63.1563 85.9292C62.1112 84.7346 61.7617 83.1082 61.4515 81.5565C61.2748 80.833 61.1903 80.0902 61.2 79.3457C61.3045 77.4824 62.5521 75.8949 63.8128 74.512C65.2989 72.8889 66.8797 71.3306 68.4605 69.7821C69.8257 68.4447 71.3999 66.1788 73.4575 66.0197C75.8287 65.8314 77.5042 67.9318 79.4475 68.8764Z" fill="#FA595F"/>
<path d="M80.7072 140.974H49.0164C47.4832 140.974 46.2402 142.209 46.2402 143.733V143.934C46.2402 145.458 47.4832 146.694 49.0164 146.694H80.7072C82.2404 146.694 83.4833 145.458 83.4833 143.934V143.733C83.4833 142.209 82.2404 140.974 80.7072 140.974Z" fill="#D6D6E3"/>
<path opacity="0.1" d="M46.2402 143.896V144.347C46.2402 144.971 46.4897 145.57 46.9338 146.011C47.3778 146.452 47.9801 146.7 48.6081 146.7H81.1154C81.7434 146.7 82.3457 146.452 82.7898 146.011C83.2339 145.57 83.4833 144.971 83.4833 144.347V143.896H46.2402Z" fill="black"/>
<path d="M118.231 146.938H111.826V228.04H118.231V146.938Z" fill="#D6D6E3"/>
<path opacity="0.1" d="M118.231 146.938H111.826V152.197H118.231V146.938Z" fill="black"/>
<path d="M278.084 141.123H108.764V151.641H278.084V141.123Z" fill="#D6D6E3"/>
</g>
<defs>
<linearGradient id="paint0_linear" x1="282.222" y1="225.289" x2="297.173" y2="58.1495" gradientUnits="userSpaceOnUse">
<stop stop-color="#808080" stop-opacity="0.25"/>
<stop offset="0.54" stop-color="#808080" stop-opacity="0.12"/>
<stop offset="1" stop-color="#808080" stop-opacity="0.1"/>
</linearGradient>
<linearGradient id="paint1_linear" x1="26277.9" y1="117689" x2="26277.9" y2="32771" gradientUnits="userSpaceOnUse">
<stop stop-color="#808080" stop-opacity="0.25"/>
<stop offset="0.54" stop-color="#808080" stop-opacity="0.12"/>
<stop offset="1" stop-color="#808080" stop-opacity="0.1"/>
</linearGradient>
<clipPath id="clip0">
<rect width="366" height="280" fill="white"/>
</clipPath>
</defs>
</svg>
