<svg width="48" height="48" viewBox="0 0 48 48" fill="none" xmlns="http://www.w3.org/2000/svg">
<mask id="mask0" mask-type="alpha" maskUnits="userSpaceOnUse" x="0" y="0" width="48" height="48">
<circle cx="24" cy="24" r="23.5" fill="url(#paint0_linear)" stroke="#AD96FF"/>
</mask>
<g mask="url(#mask0)">
<path d="M34.0001 41V37C34.0001 32.5817 30.4184 29 26.0001 29H10.0001C5.58184 29 2.00012 32.5817 2.00012 37V41" stroke="#AD96FF" stroke-width="2" stroke-linecap="round" stroke-linejoin="round"/>
<path fill-rule="evenodd" clip-rule="evenodd" d="M17.9998 21C22.418 21 25.9998 17.4183 25.9998 13C25.9998 8.58172 22.418 5 17.9998 5C13.5815 5 9.99976 8.58172 9.99976 13C9.99976 17.4183 13.5815 21 17.9998 21Z" stroke="#AD96FF" stroke-width="2" stroke-linecap="round" stroke-linejoin="round"/>
<path d="M45.9998 40.9998V36.9998C45.997 33.354 43.5298 30.1712 39.9998 29.2598" stroke="#AD96FF" stroke-width="2" stroke-linecap="round" stroke-linejoin="round"/>
<path d="M32.0001 5.25977C35.54 6.16611 38.0158 9.35575 38.0158 13.0098C38.0158 16.6638 35.54 19.8534 32.0001 20.7598" stroke="#AD96FF" stroke-width="2" stroke-linecap="round" stroke-linejoin="round"/>
</g>
<defs>
<linearGradient id="paint0_linear" x1="24" y1="0" x2="24" y2="48" gradientUnits="userSpaceOnUse">
<stop stop-color="#8360FE"/>
<stop offset="1" stop-color="#425072"/>
</linearGradient>
</defs>
</svg>
