<svg width="73" height="73" viewBox="0 0 73 73" fill="none" xmlns="http://www.w3.org/2000/svg">
<g clip-path="url(#clip0)">
<path d="M36.4506 23.7285C29.3946 23.7285 23.6543 29.4688 23.6543 36.5248C23.6543 39.0091 24.3667 41.3297 25.5968 43.2948C25.6342 43.3674 25.6792 43.437 25.7301 43.5035C28.0161 47.0032 31.9675 49.3211 36.4506 49.3211C43.5066 49.3211 49.2469 43.5807 49.2469 36.5248C49.2469 29.469 43.5066 23.7285 36.4506 23.7285ZM27.2099 40.2993C26.7322 39.1341 26.4667 37.8602 26.4667 36.5248C26.4668 31.0196 30.9454 26.541 36.4506 26.541C39.8193 26.541 42.8012 28.2197 44.6102 30.7827L36.887 38.506L33.9395 35.5586C33.3902 35.0095 32.5 35.0096 31.9506 35.5586L27.2099 40.2993ZM36.4506 46.5086C33.3197 46.5086 30.5221 45.0588 28.6902 42.7966L32.9451 38.5417L35.8926 41.489C36.4419 42.0382 37.332 42.038 37.8815 41.489L45.941 33.4295C46.2599 34.4046 46.4346 35.4444 46.4346 36.5247C46.4344 42.0299 41.9557 46.5086 36.4506 46.5086Z" fill="#56CCF2"/>
<path d="M58.0856 35.5553C57.8647 28.6832 55.9417 21.9439 52.4899 15.9849C48.8149 9.64074 43.5107 4.35929 37.1506 0.711754C36.7175 0.46327 36.1847 0.46327 35.7516 0.711754C29.3917 4.35929 24.0874 9.64074 20.4123 15.9848C16.9605 21.9437 15.0375 28.6831 14.8166 35.5551C9.88683 37.6707 6.63867 42.5386 6.63867 47.9654V57.9004C6.63867 58.6771 7.26839 59.3067 8.04492 59.3067H28.7085C29.0115 63.5365 30.8634 67.5879 33.8952 70.5751L35.4641 72.121C35.7378 72.3906 36.0944 72.5254 36.4512 72.5254C36.8079 72.5254 37.1644 72.3906 37.4382 72.121L39.0072 70.5751C42.0389 67.5879 43.8908 63.5367 44.1938 59.3068H48.5449V66.5648C48.5449 67.3414 49.1746 67.971 49.9512 67.971C50.7277 67.971 51.3574 67.3414 51.3574 66.5648V59.3067H64.8574C65.634 59.3067 66.2637 58.6771 66.2637 57.9004V47.9655C66.2637 42.5385 63.0154 37.6707 58.0856 35.5553ZM36.4512 3.5625C40.8727 6.22299 44.6524 9.70402 47.6413 13.7442H25.2611C28.2499 9.70402 32.0296 6.22299 36.4512 3.5625ZM9.45117 56.4942V47.9654C9.45117 44.0989 11.5338 40.5908 14.7949 38.7061V55.0879C14.7949 55.581 14.8807 56.054 15.0368 56.4942H9.45117ZM37.0332 68.5716L36.4512 69.1451L35.8691 68.5716C33.3704 66.1097 31.8266 62.787 31.5297 59.3067H41.3726C41.0756 62.787 39.5318 66.1097 37.0332 68.5716ZM55.2949 55.0879C55.2949 55.8633 54.6641 56.4942 53.8887 56.4942H19.0137C18.2383 56.4942 17.6074 55.8633 17.6074 55.0879V36.8894C17.6074 31.7973 18.6132 26.8355 20.4801 22.252H26.8475C27.624 22.252 28.2537 21.6224 28.2537 20.8457C28.2537 20.0691 27.624 19.4395 26.8475 19.4395H21.7577C22.252 18.4562 22.7879 17.4945 23.3632 16.5567H49.5391C53.2355 22.583 55.2949 29.6027 55.2949 36.8894V55.0879ZM63.4512 56.4942H57.8655C58.0216 56.054 58.1074 55.581 58.1074 55.0879V38.7062C61.3685 40.5908 63.4512 44.0989 63.4512 47.9655V56.4942Z" fill="#56CCF2"/>
<path d="M32.9453 19.8515C32.6838 19.5899 32.321 19.4395 31.9512 19.4395C31.5813 19.4395 31.2185 19.5899 30.957 19.8515C30.6954 20.113 30.5449 20.4759 30.5449 20.8457C30.5449 21.2155 30.6952 21.5784 30.957 21.8399C31.2187 22.1015 31.5813 22.252 31.9512 22.252C32.321 22.252 32.6838 22.1015 32.9453 21.8399C33.2068 21.5784 33.3574 21.2155 33.3574 20.8457C33.3574 20.4759 33.207 20.113 32.9453 19.8515Z" fill="#56CCF2"/>
<path d="M22.9512 63.0684C22.1746 63.0684 21.5449 63.6979 21.5449 64.4746V68.8067C21.5449 69.5834 22.1746 70.213 22.9512 70.213C23.7277 70.213 24.3574 69.5834 24.3574 68.8067V64.4746C24.3574 63.6979 23.7277 63.0684 22.9512 63.0684Z" fill="#56CCF2"/>
<path d="M50.9453 70.1249C50.6838 69.8634 50.321 69.7129 49.9512 69.7129C49.5813 69.7129 49.2185 69.8634 48.957 70.1249C48.6954 70.3865 48.5449 70.7493 48.5449 71.1191C48.5449 71.489 48.6952 71.8518 48.957 72.1134C49.2187 72.3749 49.5813 72.5254 49.9512 72.5254C50.321 72.5254 50.6838 72.3749 50.9453 72.1134C51.2068 71.8518 51.3574 71.489 51.3574 71.1191C51.3574 70.7493 51.207 70.3865 50.9453 70.1249Z" fill="#56CCF2"/>
</g>
<defs>
<clipPath id="clip0">
<rect width="72" height="72" fill="white" transform="translate(0.451172 0.525391)"/>
</clipPath>
</defs>
</svg>
