<svg width="72" height="73" viewBox="0 0 72 73" fill="none" xmlns="http://www.w3.org/2000/svg">
<path d="M63.523 33.9539C61.073 32.729 56.4795 32.7148 56.2852 32.7148C55.7027 32.7148 55.2305 33.1871 55.2305 33.7695C55.2305 34.352 55.7027 34.8242 56.2852 34.8242C57.4705 34.8244 60.912 35.0069 62.5797 35.8406C62.7311 35.9164 62.892 35.9522 63.0505 35.9522C63.4373 35.9522 63.8099 35.7384 63.9946 35.369C64.2552 34.848 64.044 34.2145 63.523 33.9539Z" fill="#EB5757"/>
<path d="M68.7814 48.9691L64.4255 47.7246C64.2375 47.6709 64.1062 47.4968 64.1062 47.3012V45.8473C64.4605 45.6017 64.7986 45.327 65.1146 45.0203C66.646 43.5341 67.4893 41.5408 67.4893 39.4072V37.4009L67.9105 36.5587C68.3727 35.6341 68.617 34.599 68.617 33.5654V28.1302C68.617 27.5477 68.1448 27.0755 67.5623 27.0755H57.413C53.7224 27.0755 50.7198 30.0781 50.7198 33.7687V33.8316C50.7198 34.6911 50.923 35.5518 51.3073 36.3205L51.8475 37.4008V39.1234C51.8475 41.8535 53.1928 44.3031 55.2306 45.7771L55.2309 47.3009C55.2309 47.5359 55.2309 47.6332 54.36 47.8821L52.2346 48.4893L46.0863 46.2537C46.1084 45.9636 46.0105 45.6685 45.7989 45.4462L43.8342 43.3821V39.9171C44.0419 39.746 44.2467 39.5702 44.4451 39.3843C46.9236 37.0612 48.345 33.7812 48.345 30.3856V27.6183C49.0935 25.9898 49.4727 24.2664 49.4727 22.4916V11.2148C49.4727 10.6324 49.0005 10.1602 48.418 10.1602H32.6302C27.0741 10.1602 22.554 14.6804 22.554 20.2364V22.4918C22.554 24.2667 22.9333 25.99 23.6817 27.6186V29.9995C23.6817 33.9421 25.4347 37.494 28.1925 39.8357V43.3823L26.2278 45.4463C26.0162 45.6687 25.9183 45.9637 25.9404 46.2538L19.4513 48.6134C18.981 48.7844 18.5441 49.016 18.1474 49.2965L17.1284 48.787C20.1617 47.4667 21.1226 45.6098 21.1687 45.5175C21.3172 45.2206 21.3172 44.871 21.1687 44.5742C20.4083 43.0535 20.3162 40.2661 20.2423 38.0265C20.2177 37.281 20.1943 36.5766 20.1497 35.9494C19.7902 30.8905 15.9443 27.0755 11.2039 27.0755C6.46341 27.0755 2.61745 30.8904 2.25802 35.9494C2.21344 36.5767 2.19009 37.2811 2.16548 38.0268C2.09152 40.2663 1.99927 43.0533 1.23905 44.574C1.09055 44.8709 1.09055 45.2205 1.23905 45.5174C1.28517 45.6096 2.24409 47.4628 5.28342 48.7846L2.45306 50.1998C0.939937 50.9569 0 52.4777 0 54.1693V61.9612C0 62.5437 0.472219 63.0159 1.05469 63.0159C1.63716 63.0159 2.10938 62.5437 2.10938 61.9612V54.1693C2.10938 53.2817 2.60255 52.4836 3.39638 52.0867L6.92086 50.3245L8.14683 51.4896C9.00408 52.3042 10.1038 52.7113 11.2039 52.7113C12.3037 52.7113 13.404 52.3039 14.2609 51.4896L15.4867 50.3246L16.6359 50.8992C16.0948 51.765 15.7877 52.7804 15.7877 53.8439V61.9615C15.7877 62.544 16.2599 63.0162 16.8424 63.0162C17.4248 63.0162 17.8971 62.544 17.8971 61.9615V53.8439C17.8971 52.396 18.8113 51.0908 20.1721 50.5959L27.0138 48.1081L29.8619 52.3804C30.2259 52.9266 30.8094 53.2769 31.4626 53.3416C31.5354 53.3488 31.6079 53.3523 31.6801 53.3523C32.2564 53.3523 32.8084 53.1255 33.221 52.713L34.9585 50.9754V61.9616C34.9585 62.5441 35.4307 63.0163 36.0132 63.0163C36.5957 63.0163 37.0679 62.5441 37.0679 61.9616V50.9754L38.8055 52.713C39.2179 53.1256 39.7699 53.3524 40.3463 53.3524C40.4184 53.3524 40.491 53.3489 40.5637 53.3417C41.217 53.2771 41.8005 52.9268 42.1646 52.3806L45.0128 48.1084L51.8543 50.5962C53.215 51.091 54.1294 52.3963 54.1294 53.8442V61.9618C54.1294 62.5442 54.6016 63.0165 55.1841 63.0165C55.7665 63.0165 56.2388 62.5442 56.2388 61.9618V53.8442C56.2388 52.3778 55.6561 51.0024 54.6788 49.9853L54.9394 49.9109C55.2022 49.8358 55.5608 49.733 55.9208 49.5565L58.6136 52.2494V61.9618C58.6136 62.5442 59.0858 63.0165 59.6683 63.0165C60.2508 63.0165 60.723 62.5442 60.723 61.9618V52.2494L63.3971 49.5752C63.5393 49.6475 63.6886 49.7086 63.8459 49.7534L68.2019 50.9979C69.1961 51.282 69.8906 52.2027 69.8906 53.2368V61.9618C69.8906 62.5442 70.3628 63.0165 70.9453 63.0165C71.5278 63.0165 72 62.5442 72 61.9618V53.2368C72 51.2656 70.6764 49.5107 68.7814 48.9691ZM6.76617 47.1063C4.79334 46.3964 3.80377 45.45 3.38133 44.9332C3.66933 44.1803 3.85608 43.318 3.9825 42.4077C4.56413 43.8023 5.53823 44.9928 6.76617 45.8422V47.1063ZM12.8081 49.9607C11.9085 50.8154 10.4993 50.8153 9.60005 49.9605L8.61919 49.0285C8.7847 48.7184 8.87569 48.3668 8.87569 47.9986V46.8744C9.61144 47.1043 10.3936 47.2283 11.2042 47.2283C12.0137 47.2283 12.7955 47.1038 13.5325 46.8751L13.5323 47.9984C13.5323 48.3668 13.6232 48.7185 13.7888 49.0288L12.8081 49.9607ZM11.2044 45.119C8.055 45.119 5.49295 42.5568 5.49295 39.4075C5.49295 38.825 5.02073 38.3528 4.43827 38.3528C4.3792 38.3528 4.32155 38.3588 4.26516 38.3683C4.26825 38.2776 4.2712 38.1867 4.2743 38.0969C4.29778 37.3717 4.32042 36.6867 4.36219 36.0991C4.49691 34.2041 5.25417 32.4578 6.49448 31.1818C7.74591 29.8942 9.4185 29.1852 11.2042 29.1852C12.9898 29.1852 14.6623 29.8942 15.9138 31.1818C17.1541 32.4578 17.9114 34.2041 18.0461 36.0991C18.0878 36.6865 18.1105 37.3714 18.1344 38.0964C18.1365 38.1587 18.1387 38.2219 18.1408 38.2846C16.9933 36.5167 15.2211 35.2138 12.9313 34.478C10.8159 33.7984 8.99648 33.8404 8.9197 33.8424C8.64352 33.8501 8.38139 33.9657 8.18972 34.1646L6.28678 36.1381C5.88248 36.5574 5.89458 37.2251 6.31392 37.6294C6.73327 38.0337 7.40095 38.0215 7.80525 37.6023L9.38869 35.9602C10.7523 36.0269 15.1394 36.537 16.8456 40.2941C16.4163 43.0627 14.0366 45.119 11.2044 45.119ZM15.6416 47.1098L15.6417 45.8519C16.8687 45.0072 17.8442 43.8189 18.4262 42.4138C18.5527 43.3219 18.7393 44.1823 19.0267 44.9335C18.6067 45.4454 17.6124 46.4002 15.6416 47.1098ZM25.791 29.9994V27.3826C25.791 27.2239 25.7552 27.0671 25.6861 26.9241C25.0075 25.5187 24.6634 24.0275 24.6634 22.4918V20.2365C24.6634 15.8435 28.2374 12.2697 32.6302 12.2697H47.3633V22.492C47.3633 24.0276 47.0192 25.5188 46.3406 26.9242C46.2715 27.0672 46.2357 27.224 46.2357 27.3828V30.3858C46.2357 33.2421 45.0875 35.8913 43.0026 37.8456C42.7423 38.0894 42.4721 38.3181 42.1928 38.5311C42.1867 38.5353 42.1807 38.54 42.1747 38.5443C40.2216 40.0272 37.8292 40.7479 35.3309 40.5861C29.9814 40.2397 25.791 35.5895 25.791 29.9994ZM31.7295 51.2213C31.7222 51.2286 31.7052 51.2459 31.6707 51.2422C31.6364 51.2388 31.6229 51.2187 31.6171 51.21L28.3371 46.2898L29.3926 45.1807L34.3686 48.582L31.7295 51.2213ZM36.0134 47.1511L30.3019 43.2471V41.2784C31.7797 42.0773 33.4344 42.5769 35.1944 42.6908C35.4724 42.7088 35.7487 42.7177 36.0242 42.7177C38.0409 42.7177 39.9818 42.2356 41.7248 41.3205V43.2471L36.0134 47.1511ZM40.4096 51.2103C40.4038 51.219 40.3903 51.2391 40.356 51.2425C40.3215 51.2468 40.3047 51.2287 40.2972 51.2215L37.6581 48.5824L42.6341 45.181L43.6898 46.2901L40.4096 51.2103ZM59.6683 50.3204L57.2749 47.9271C57.3166 47.7374 57.3403 47.5297 57.3401 47.3006L57.34 46.8555C58.0042 47.0735 58.7042 47.2029 59.4285 47.2246C59.5098 47.2271 59.5904 47.2282 59.6714 47.2282C60.4718 47.2282 61.2532 47.1073 61.9968 46.8765V47.3012C61.9968 47.5116 62.0232 47.7177 62.073 47.9159L59.6683 50.3204ZM63.6456 43.5066C62.5278 44.5913 61.0511 45.1643 59.492 45.1162C56.4398 45.0246 53.9568 42.3363 53.9568 39.1237V37.152C53.9568 36.9882 53.9187 36.8267 53.8455 36.6803L53.1939 35.3773C52.9553 34.8999 52.8292 34.3655 52.8292 33.8317V33.7688C52.8292 31.2413 54.8855 29.185 57.413 29.185H66.5076V33.5655C66.5076 34.2734 66.3403 34.9823 66.0237 35.6155L65.4913 36.6803C65.418 36.8269 65.3799 36.9882 65.3799 37.152V39.4073C65.3799 40.9655 64.764 42.4212 63.6456 43.5066Z" fill="#EB5757"/>
<path d="M66.4336 54.1406C65.8511 54.1406 65.3789 54.6128 65.3789 55.1953V61.9615C65.3789 62.544 65.8511 63.0162 66.4336 63.0162C67.0161 63.0162 67.4883 62.544 67.4883 61.9615V55.1953C67.4883 54.613 67.0161 54.1406 66.4336 54.1406Z" fill="#EB5757"/>
<path d="M5.56641 55.5352C4.98394 55.5352 4.51172 56.0074 4.51172 56.5898V61.9619C4.51172 62.5443 4.98394 63.0165 5.56641 63.0165C6.14887 63.0165 6.62109 62.5443 6.62109 61.9619V56.5898C6.62109 56.0075 6.14887 55.5352 5.56641 55.5352Z" fill="#EB5757"/>
<path d="M44.6527 22.8742C40.6637 18.8853 32.3178 19.6479 28.9144 20.1609C27.8424 20.3225 27.0645 21.2296 27.0645 22.3179V24.7476C27.0645 25.3301 27.5367 25.8023 28.1191 25.8023C28.7016 25.8023 29.1738 25.3301 29.1738 24.7476V22.3178C29.1738 22.2819 29.1975 22.2513 29.229 22.2465C30.5884 22.0416 33.286 21.7255 36.0809 21.9118C39.3699 22.1308 41.752 22.9564 43.1612 24.3657C43.5731 24.7776 44.241 24.7776 44.6527 24.3657C45.0646 23.9538 45.0646 23.286 44.6527 22.8742Z" fill="#EB5757"/>
<path d="M23.6074 56.3965C23.025 56.3965 22.5527 56.8687 22.5527 57.4512V61.962C22.5527 62.5445 23.025 63.0167 23.6074 63.0167C24.1899 63.0167 24.6621 62.5445 24.6621 61.962V57.4512C24.6621 56.8688 24.1899 56.3965 23.6074 56.3965Z" fill="#EB5757"/>
<path d="M48.418 56.3965C47.8355 56.3965 47.3633 56.8687 47.3633 57.4512V61.962C47.3633 62.5445 47.8355 63.0167 48.418 63.0167C49.0004 63.0167 49.4727 62.5445 49.4727 61.962V57.4512C49.4727 56.8688 49.0004 56.3965 48.418 56.3965Z" fill="#EB5757"/>
</svg>
